<svg width="921" height="560" viewBox="0 0 921 560" fill="none" xmlns="http://www.w3.org/2000/svg">
<path d="M25 172.316C8.2 174.716 1.33333 272.649 0 321.316L76 503.316C268 522.983 662.2 561.716 703 559.316C743.8 556.916 865.333 408.316 921 334.316C914 253.649 893 85.116 865 56.316C830 20.316 736 3.31596 693 0.315963C650 -2.68404 602 16.316 558 30.316C514 44.316 426 29.316 377 16.316C328 3.31595 251 59.316 228 81.316C205 103.316 117 76.316 76 65.316C35 54.316 46 169.316 25 172.316Z" fill="#828CFF"/>
</svg>
