<svg width="664" height="352" viewBox="0 0 664 352" fill="none" xmlns="http://www.w3.org/2000/svg">
<path d="M266.399 351.9H-6.9006C-18.2006 341.8 -25.1006 330.1 -24.0006 319.3C-21.7006 296 14.9994 292.6 50.5994 309.4L57.5994 312.9C58.7793 308.614 60.6724 304.557 63.1994 300.9C80.999 274.8 121.199 272.3 147.199 291.4C150.065 293.495 152.742 295.838 155.199 298.4C158.695 293.567 162.683 289.109 167.099 285.1C191.199 263.3 219.799 258.6 230.699 272C240.299 283.8 232.899 306.5 214.699 324.4C214.699 324.4 268.499 325.7 266.399 351.9Z" fill="#404EED"/>
<path d="M604.4 351.4C582.3 305.8 569.9 251.2 569.9 251.2L568.9 245.9L524.4 251.2V351.4H604.4Z" fill="#2835BD"/>
<path d="M594.8 351.4C575.4 311.4 564.6 263.5 564.6 263.5L562 250.1L524.7 263.5V351.4H594.8Z" fill="black"/>
<path d="M601.8 218H585.6V351.46H601.8V218Z" fill="#2835BD"/>
<path d="M601.8 235.3C599.374 236.405 596.683 236.794 594.044 236.422C591.404 236.05 588.926 234.932 586.9 233.2L585.6 232.1V226.1L601.8 223V235.3Z" fill="black"/>
<path d="M577 351.4C588.1 348.7 603.2 334 603.2 334C603.2 334 608.5 345.4 611.6 351.4H622.8C624.009 351.407 625.206 351.158 626.313 350.671C627.42 350.184 628.411 349.468 629.223 348.572C630.034 347.675 630.648 346.618 631.023 345.468C631.398 344.319 631.527 343.103 631.4 341.9C630.9 337 628.6 331.5 625.1 323.5C619.2 310.2 617.3 303.2 605.8 303.2H595.4L571.4 292.6C556 300.7 545.4 305.4 536.3 310.8C522.9 319 512.3 335.2 522.7 351.4H577Z" fill="#FFC619"/>
<path d="M408 263.5V351.4H529.8C549.2 311.4 560 263.5 560 263.5L562.9 251.2L408 263.5Z" fill="#2835BD"/>
<path d="M532.2 266.2L408 277.8V351.4H500.9C509.9 330.9 532.2 266.2 532.2 266.2Z" fill="black"/>
<path d="M515.7 344.7C525.945 328.858 534.08 311.747 539.9 293.8" stroke="black" stroke-width="2" stroke-linecap="round" stroke-linejoin="round"/>
<path d="M501.2 332.5C496.055 332.5 491.12 334.544 487.482 338.182C483.844 341.82 481.8 346.755 481.8 351.9H520.6C520.6 346.755 518.556 341.82 514.918 338.182C511.28 334.544 506.345 332.5 501.2 332.5Z" fill="#404EED"/>
<path d="M528.8 351.4C548.2 311.4 559.1 263.5 559.1 263.5L528.8 351.4Z" fill="#2835BD"/>
<path d="M566.3 351.3C566.2 351.1 559.3 333.7 555.7 322.5L555.5 321.8C553.1 314.2 551.1 308.1 551.4 302.7L549.7 303.6C549.7 309 551.6 315 554 322.3L554.2 323C557.5 333.2 563.4 348.5 564.6 351.4H566.3V351.3Z" fill="black"/>
<path d="M628.8 349C629.417 348.397 629.883 347.657 630.161 346.841C630.438 346.024 630.521 345.154 630.4 344.3C629.7 337.2 626 328.7 622.1 319.9L618.1 310.5L616.6 311.1C617.9 314.3 619.3 317.4 620.6 320.5C625.3 331.2 629.8 341.5 628.8 349Z" fill="white"/>
<path d="M595.4 322.9C593.5 330.7 590.8 340.4 587.3 351.4H566.3C566.3 351.4 559.5 333.9 555.8 322.6C552.1 311.3 549.4 303.2 553.1 295.7C556.8 288.2 562.6 287.6 571.4 292.6L570.1 306.8L576.8 325.8L579.9 315.7C586.5 311.4 594.8 313.8 595.4 322.9Z" fill="#FFC619"/>
<path d="M568.3 345.1L566.6 340.2C562.9 329.3 559.7 320 557.5 311.5C555.7 304.5 554.2 296.2 555.1 292.5C554.365 293.396 553.728 294.368 553.2 295.4C553.2 300.8 555 308.3 555.9 311.9C558.2 320.5 561.4 329.8 565.1 340.7L566.8 345.7C567.533 347.767 568.233 349.667 568.9 351.4H570.7C569.9 349.6 569.2 347.6 568.3 345.1Z" fill="white"/>
<path d="M583.5 351.4C585.8 343.7 589.1 332.4 593.4 317.8C593.43 317.695 593.438 317.585 593.423 317.477C593.409 317.368 593.373 317.264 593.316 317.17C593.26 317.077 593.185 316.995 593.096 316.932C593.008 316.868 592.907 316.823 592.8 316.8C592.703 316.752 592.596 316.727 592.488 316.727C592.379 316.727 592.272 316.752 592.175 316.801C592.078 316.849 591.994 316.92 591.929 317.006C591.864 317.093 591.82 317.194 591.8 317.3C587.4 332.2 584.1 343.7 581.8 351.4H583.5Z" fill="white"/>
<path d="M591.6 261.4C579 259.6 574.2 260.5 569.5 271.1C564.8 281.7 567.2 290.7 575 302.1C582.8 313.5 602 311.4 609.3 308.7C616.6 306 623 298.7 626.6 288.4C630.2 278.1 629.1 266.8 623.7 260.6C618.3 254.4 609.2 249.3 601 251.9C592.8 254.5 591.6 261.4 591.6 261.4Z" fill="#DE3A93"/>
<path d="M597.7 276.3L593.9 275.3" stroke="black" stroke-width="2" stroke-linecap="round" stroke-linejoin="round"/>
<path d="M597.9 277.9L594 278.4" stroke="black" stroke-width="2" stroke-linecap="round" stroke-linejoin="round"/>
<path d="M625.5 276L628.5 274" stroke="black" stroke-width="2" stroke-linecap="round" stroke-linejoin="round"/>
<path d="M625.3 277.7L628.4 277.2" stroke="black" stroke-width="2" stroke-linecap="round" stroke-linejoin="round"/>
<path d="M587.5 251.2C585.4 251.2 583.8 252.6 583.7 253.6C583.6 254.6 587.4 257.8 592.3 263.9L593.6 263.4C589 251.6 589.6 251.1 587.5 251.2Z" fill="black"/>
<path d="M597.2 260.5C593.4 262.9 589 266.2 589 266.2" stroke="black" stroke-width="2" stroke-linecap="round" stroke-linejoin="round"/>
<path d="M595.4 322.9C596.6 317.8 597.5 313.5 598 310.2C599.4 301.6 596.8 300.2 593 299.1C589.2 298 586.5 295.9 584.7 289.4C582.9 282.9 581.8 283 579.6 284.1C577.2 285.399 575.143 287.25 573.6 289.5C572.4 291.6 572.6 294 574.9 299.9C576.422 303.59 578.867 306.827 582 309.3L579.9 315.7C587.6 315.4 592.2 316.4 595.4 322.9Z" fill="#FF78B9"/>
<path d="M607.9 318.9C606.8 314 605.4 308.7 607.9 307.3C610.4 305.9 618.1 302.3 622.3 293.2C622.388 292.974 622.52 292.767 622.69 292.593C622.859 292.419 623.062 292.281 623.287 292.188C623.511 292.094 623.752 292.047 623.995 292.049C624.237 292.052 624.477 292.103 624.7 292.2H624.9C625.082 292.266 625.249 292.368 625.39 292.502C625.531 292.635 625.642 292.796 625.717 292.974C625.792 293.153 625.83 293.345 625.827 293.539C625.824 293.733 625.781 293.924 625.7 294.1C623.654 298.45 621.211 302.601 618.4 306.5C618.983 308.845 619.718 311.15 620.6 313.4C616 315.7 607.9 318.9 607.9 318.9Z" fill="#FF78B9"/>
<path d="M583.3 302.9C583.448 302.735 583.529 302.522 583.529 302.3C583.529 302.079 583.448 301.865 583.3 301.7C581.805 300.133 580.466 298.425 579.3 296.6C577.4 293.3 575.6 287.4 576.9 285.9L575.5 287.2C575.278 287.44 575.109 287.725 575.006 288.035C574.902 288.346 574.866 288.675 574.9 289C575.429 291.947 576.443 294.785 577.9 297.4C579.109 299.372 580.517 301.214 582.1 302.9L582.7 303.1L583.3 302.9Z" fill="black"/>
<path d="M582.8 309.5C585.685 309.144 588.594 309.011 591.5 309.1" stroke="black" stroke-width="2" stroke-linecap="round" stroke-linejoin="round"/>
<path d="M573.3 336.7L579.6 316.7" stroke="black" stroke-width="2" stroke-linecap="round" stroke-linejoin="round"/>
<path d="M576.8 325.8L570.7 308.3" stroke="black" stroke-width="2" stroke-linecap="round" stroke-linejoin="round"/>
<path d="M608 319.7C609.8 329.4 613.7 343 613.7 343" stroke="black" stroke-width="2" stroke-linecap="round" stroke-linejoin="round"/>
<path d="M526.9 326C523.426 326 520.094 327.38 517.637 329.837C515.18 332.294 513.8 335.626 513.8 339.1V351.9H539.9V339.1C539.9 335.643 538.534 332.326 536.099 329.872C533.663 327.418 530.357 326.027 526.9 326Z" fill="#404EED"/>
<path d="M539.9 339.1C538.211 339.087 536.535 339.408 534.971 340.046C533.406 340.683 531.984 341.624 530.784 342.814C529.585 344.004 528.633 345.419 527.984 346.979C527.334 348.538 527 350.211 527 351.9H552.7C552.7 348.505 551.351 345.25 548.951 342.849C546.551 340.449 543.295 339.1 539.9 339.1Z" fill="#404EED"/>
<path d="M580 227.5L599.7 224.4" stroke="black" stroke-width="8" stroke-linecap="round" stroke-linejoin="round"/>
<path d="M621.2 264.1L621.9 265.2" stroke="#FFA8D2" stroke-width="3" stroke-linecap="round" stroke-linejoin="round"/>
<path d="M611.3 256.8C613.889 257.576 616.278 258.907 618.3 260.7" stroke="#FFA8D2" stroke-width="3" stroke-linecap="round" stroke-linejoin="round"/>
<path d="M599.2 224.5C615.9 221.7 642.7 215.5 656.6 211.8" stroke="#2835BD" stroke-width="8" stroke-linecap="round" stroke-linejoin="round"/>
<path d="M651.6 214.5L656.9 239.1" stroke="black" stroke-width="2" stroke-linecap="round" stroke-linejoin="round"/>
<path d="M661.9 238.3V235.1H641.3V238.4C641.258 238.857 641.122 239.299 640.9 239.7C639.868 241.202 639.311 242.978 639.3 244.8V257.9C639.302 260.114 640.102 262.252 641.553 263.924C643.004 265.595 645.009 266.687 647.2 267C650.153 267.4 653.147 267.4 656.1 267C658.264 266.663 660.233 265.558 661.647 263.886C663.062 262.215 663.826 260.09 663.8 257.9V244.8C663.825 242.988 663.302 241.21 662.3 239.7C662.019 239.289 661.878 238.798 661.9 238.3Z" fill="#8CD9FF"/>
<path d="M660 239.7V235.6H643.1V239.7C643.105 240.506 642.898 241.299 642.5 242C641.702 243.18 641.284 244.576 641.3 246V257.2C641.302 259.06 641.968 260.857 643.178 262.269C644.388 263.681 646.063 264.614 647.9 264.9C650.291 265.2 652.709 265.2 655.1 264.9C656.964 264.656 658.675 263.738 659.909 262.32C661.143 260.901 661.816 259.08 661.8 257.2V246C661.791 244.593 661.412 243.214 660.7 242C660.275 241.305 660.034 240.514 660 239.7Z" fill="#5865F2"/>
<path d="M641.3 236.7C641.3 238.1 645.9 239.2 651.6 239.2C657.3 239.2 661.9 238.1 661.9 236.7L651.6 232.6L641.3 236.7Z" fill="#8CD9FF"/>
<path d="M640.7 235.9C640.612 236.05 640.555 236.217 640.532 236.39C640.51 236.563 640.522 236.738 640.569 236.906C640.615 237.074 640.695 237.231 640.804 237.367C640.912 237.504 641.047 237.617 641.2 237.7C642.9 238.7 646.9 239.4 651.6 239.4C656.3 239.4 660.3 238.7 662 237.7C662.29 237.514 662.502 237.228 662.594 236.896C662.686 236.564 662.653 236.209 662.5 235.9L651.6 214.5L640.7 235.9Z" stroke="black" stroke-width="2" stroke-linecap="round" stroke-linejoin="round"/>
<path d="M650.6 258L647.5 257.3C647.201 257.192 646.952 256.979 646.8 256.7C646.658 256.421 646.631 256.097 646.724 255.798C646.818 255.499 647.024 255.249 647.3 255.1C647.45 255.012 647.617 254.955 647.79 254.932C647.962 254.91 648.138 254.922 648.306 254.969C648.474 255.015 648.631 255.095 648.767 255.204C648.903 255.312 649.017 255.447 649.1 255.6L650.6 258Z" fill="white"/>
<path d="M650.6 258L650.4 254.9C650.394 254.753 650.418 254.607 650.469 254.47C650.521 254.332 650.599 254.207 650.7 254.1C650.785 253.97 650.9 253.861 651.034 253.783C651.169 253.704 651.32 253.659 651.475 253.649C651.63 253.639 651.786 253.666 651.929 253.727C652.072 253.788 652.199 253.881 652.3 254C652.561 254.215 652.728 254.523 652.765 254.86C652.802 255.196 652.707 255.533 652.5 255.8L650.6 258Z" fill="white"/>
<path d="M651.2 260.9C649.5 261.4 647.9 260.9 647.5 259.8C647.1 258.7 647.7 258.1 649.3 257.7C649.998 257.52 650.67 257.251 651.3 256.9C652.6 256.2 653.3 257 653.6 257.9C653.9 258.8 652.9 260.3 651.2 260.9Z" fill="#121B80"/>
<path d="M648.136 257.878L646.936 257.857C646.108 257.843 645.424 258.502 645.41 259.331L645.408 259.421C645.394 260.249 646.054 260.932 646.882 260.947L648.082 260.968C648.91 260.982 649.593 260.322 649.608 259.494L649.609 259.404C649.624 258.576 648.964 257.893 648.136 257.878Z" fill="#FFE75C"/>
<path d="M653.8 246.2L656.6 244.7C656.821 244.511 656.992 244.27 657.1 244C657.146 243.849 657.162 243.69 657.147 243.533C657.132 243.376 657.086 243.223 657.011 243.084C656.937 242.945 656.836 242.821 656.714 242.721C656.592 242.621 656.451 242.546 656.3 242.5C655.968 242.408 655.614 242.451 655.314 242.619C655.014 242.788 654.793 243.069 654.7 243.4L653.8 246.2Z" fill="white"/>
<path d="M653.8 246.2L653.3 243.1C653.193 242.8 653.023 242.527 652.8 242.3C652.524 242.153 652.206 242.103 651.898 242.157C651.59 242.211 651.309 242.367 651.1 242.6C650.908 242.907 650.843 243.276 650.917 243.631C650.992 243.985 651.201 244.297 651.5 244.5L653.8 246.2Z" fill="white"/>
<path d="M654.6 245.8C656 246.8 656.7 248.4 656 249.3C655.3 250.2 654.5 250.3 653.2 249.2C652.653 248.754 652.047 248.384 651.4 248.1C651.153 248.039 650.928 247.912 650.747 247.732C650.567 247.553 650.44 247.327 650.378 247.081C650.316 246.834 650.323 246.575 650.397 246.332C650.472 246.089 650.611 245.87 650.8 245.7C651.4 244.7 653.2 244.8 654.6 245.8Z" fill="#121B80"/>
<path d="M653.905 249.398L654.612 250.368C655.1 251.037 656.038 251.184 656.708 250.696L656.78 250.643C657.45 250.155 657.597 249.216 657.109 248.547L656.402 247.577C655.913 246.908 654.975 246.761 654.306 247.249L654.233 247.302C653.564 247.79 653.417 248.729 653.905 249.398Z" fill="#FFE75C"/>
<path d="M651.6 237.6C657.289 237.6 661.9 236.481 661.9 235.1C661.9 233.719 657.289 232.6 651.6 232.6C645.911 232.6 641.3 233.719 641.3 235.1C641.3 236.481 645.911 237.6 651.6 237.6Z" fill="#8CD9FF"/>
<path d="M662 235.1H641.3V236.52H662V235.1Z" fill="#8CD9FF"/>
<path d="M655.8 235.9C655.3 236 654.9 236.3 654.9 236.8C654.912 236.906 654.946 237.007 654.998 237.1C655.05 237.192 655.12 237.273 655.203 237.339C655.287 237.404 655.383 237.452 655.485 237.479C655.588 237.507 655.695 237.514 655.8 237.5L657.5 237.2C657.725 237.162 657.932 237.055 658.093 236.894C658.255 236.732 658.362 236.525 658.4 236.3C658.39 236.197 658.357 236.098 658.303 236.009C658.25 235.921 658.178 235.845 658.092 235.787C658.006 235.73 657.908 235.693 657.806 235.677C657.703 235.662 657.599 235.67 657.5 235.7L655.8 235.9Z" fill="white"/>
<path d="M651.6 214.5L646.3 239.1" stroke="black" stroke-width="2" stroke-linecap="round" stroke-linejoin="round"/>
<path d="M652.4 216.2L649.8 210.6" stroke="black" stroke-width="2" stroke-linecap="round" stroke-linejoin="round"/>
<path d="M651.8 216.5L652.1 210.1" stroke="black" stroke-width="2" stroke-linecap="round" stroke-linejoin="round"/>
<path d="M623.7 281.4C627 277.6 626.5 275.3 625.4 274.6C624.3 273.9 622.6 275.2 619.6 280C616.6 284.8 619.1 286.6 623.7 281.4Z" fill="white"/>
<path d="M608 281.4C605.8 276.8 602 273.5 598.5 274C595 274.5 596.4 279.7 601 283.2C605.6 286.7 610.4 286.4 608 281.4Z" fill="white"/>
<path d="M625.2 277.2C625.394 276.3 625.324 275.362 625 274.5C624.1 274.4 622.7 275.4 620.8 278.1C621 279.5 621.7 280.5 622.5 280.6C623.3 280.7 625 279.3 625.2 277.2Z" fill="black"/>
<path d="M608.1 281.7C608.1 281.6 608 281.5 608 281.4C606.933 279.083 605.32 277.058 603.3 275.5C602.723 276.643 602.48 277.925 602.6 279.2C602.8 281.9 604.2 284 605.8 283.9C606.367 283.824 606.895 283.57 607.309 283.175C607.722 282.78 607.999 282.263 608.1 281.7Z" fill="black"/>
<path d="M610 291.7C616.3 290.1 618.8 289.4 619.8 290.8C620.8 292.2 619.9 293.8 618.4 295.4C620 298.9 619.5 300.5 616.4 300.5C614.14 300.339 611.949 299.654 610 298.5" stroke="black" stroke-width="2" stroke-linecap="round" stroke-linejoin="round"/>
<path d="M616.7 293.7C616.308 294.738 615.769 295.715 615.1 296.6" stroke="black" stroke-width="2" stroke-linecap="round" stroke-linejoin="round"/>
<path d="M188.6 351.4H199L206.8 327.6H186.3L188.6 351.4Z" fill="black"/>
<path d="M319.7 351.4H264C228.2 351.4 207.6 341.1 192.2 329.4L188.6 351.4H179.5C179.5 245.8 193.1 145.6 193.1 145.6C195.1 134.3 216.6 129.2 243.3 138.5C270 147.8 277.1 159.7 276.1 170.5C275.1 181.3 266.6 254.1 263.4 288.2L269.1 294.4C271.066 296.443 272.524 298.919 273.358 301.628C274.192 304.338 274.378 307.205 273.9 310L273.3 313.3C295.3 327.5 329.3 320.4 319.7 351.4Z" fill="#29CC7A"/>
<path d="M204.2 165C203.3 177.6 203.1 182.8 203.1 184.8C203.093 185.116 203.152 185.43 203.273 185.723C203.393 186.015 203.573 186.28 203.8 186.5C209.7 192.4 216.7 194.3 222.2 195C222.518 195.042 222.841 195.017 223.149 194.927C223.457 194.836 223.742 194.683 223.987 194.476C224.232 194.268 224.431 194.012 224.571 193.724C224.711 193.435 224.789 193.121 224.8 192.8L225.9 176.8" stroke="white" stroke-width="2" stroke-miterlimit="10" stroke-linecap="round"/>
<path d="M199.8 282.3C196.487 282.37 193.214 281.578 190.3 280" stroke="black" stroke-width="4" stroke-miterlimit="10" stroke-linecap="round"/>
<path d="M191.5 286.9C195.8 287.5 201.1 285.6 201.1 285.6" stroke="black" stroke-width="4" stroke-miterlimit="10" stroke-linecap="round"/>
<path d="M250.8 215.1C249.9 224.1 249.7 234 254.2 236.6C257 238.3 262.7 238.1 269 235.1C271.5 210.2 274.2 188.8 275.5 176.7L245.7 181.6C242.8 207.3 242.3 215.7 250.8 215.1Z" fill="#15AD75"/>
<path d="M271.531 178.681C276.31 168.661 263.495 152.579 242.907 142.759C222.32 132.939 201.756 133.101 196.977 143.121C192.198 153.14 205.013 169.223 225.601 179.043C246.188 188.862 266.752 188.7 271.531 178.681Z" fill="black"/>
<path d="M192.2 329.4C207.6 341.1 228.2 351.4 264 351.4H319.7C320.648 348.523 321.187 345.527 321.3 342.5C262.2 342.5 227.9 341.3 180.3 305.7C179.9 319.9 179.6 335.2 179.5 351.4H188.6L192.2 329.4Z" fill="#57F287"/>
<path d="M196.2 279.1C198.8 289.2 205.9 296.9 212.1 296.3C218.3 295.7 218.5 289.9 216.1 280.2C215.5 277.6 215 275.1 214.5 272.5C212.7 263.3 208.2 259.3 202.7 259.8C197.2 260.3 193.5 269.1 196.2 279.1Z" fill="white"/>
<path d="M196.2 279.1C198.8 289.2 205.9 296.9 212.1 296.3C218.3 295.7 218.5 289.9 216.1 280.2C215.5 277.6 215 275.1 214.5 272.5C212.7 263.3 208.2 259.3 202.7 259.8C197.2 260.3 193.5 269.1 196.2 279.1Z" fill="white"/>
<path d="M212.5 279.2C213.5 283.6 212.8 287.5 211.1 287.8C209.4 288.1 207.3 285.8 206.6 280.3C205.9 274.8 206.3 271.8 208 271.8C209.7 271.8 211.6 274.7 212.5 279.2Z" fill="black"/>
<path d="M270.4 312.5C270.548 312.509 270.696 312.48 270.831 312.418C270.966 312.355 271.083 312.26 271.172 312.141C271.261 312.023 271.319 311.884 271.342 311.737C271.364 311.59 271.35 311.44 271.3 311.3C269.3 301.3 263.2 299.9 251.9 302.5C240.6 305.1 236.1 306.1 233.9 306.9C231.7 307.7 232.7 308.2 247.6 310.5C255.135 311.767 262.759 312.436 270.4 312.5Z" fill="#15AD75"/>
<path d="M320.8 337.4C309.7 337.5 291.2 337.3 273 336.1C239.2 333.8 208.1 321.2 180.5 298.7V300.5C208.1 322.8 239.1 335.3 272.9 337.5C289.9 338.7 307.1 338.9 318.4 338.9H321.1L320.8 337.4Z" fill="black"/>
<path d="M214.5 272.6C212.7 263.4 208.2 259.4 202.7 259.9C197.2 260.4 195.7 264.5 195.3 270.4C201.491 272.398 208.017 273.146 214.5 272.6Z" fill="#5865F2"/>
<path d="M356.4 192.3L323.1 210.9C323.67 211.427 324.387 211.767 325.156 211.875C325.925 211.982 326.708 211.851 327.4 211.5C329.3 210.7 333.9 206.5 335.7 205.5C337.5 204.5 342.6 202.5 345.1 201.5C348.183 200.279 351.078 198.629 353.7 196.6C355.9 194.8 356.7 194.1 356.4 192.3Z" fill="black"/>
<path d="M274.2 123.2C268.1 119.4 267.8 119.5 264.4 113.4C261 107.3 256.7 104.3 251.7 103.6L257.9 148.5C270.9 152.3 278.9 145.7 280.7 139.2C282.5 132.7 280.4 127 274.2 123.2Z" fill="#3442D9"/>
<path d="M268.1 129.1C266.4 121.8 261.9 113.3 256.6 106.9C254.701 104.588 253.354 101.873 252.661 98.9618C251.968 96.0509 251.947 93.0203 252.6 90.1001L254.8 80.1001C256.347 73.1595 255.522 65.9009 252.459 59.4839C249.395 53.0668 244.269 47.8617 237.9 44.7001C234.245 42.9006 230.267 41.8468 226.2 41.6001C218.547 41.0395 210.977 43.483 205.096 48.4118C199.215 53.3407 195.486 60.3671 194.7 68.0001C194.534 69.2931 194.467 70.5969 194.5 71.9001V76.2001L194.7 94.2001C194.917 102.287 193.203 110.308 189.7 117.6C188.246 120.493 187.139 123.548 186.4 126.7L235.3 178.7C258.6 174.8 273.2 152.3 268.1 129.1Z" fill="#3442D9"/>
<path d="M235.4 178.7C258.6 174.8 273.2 152.3 268.1 129.1C266.5 122.2 262.4 114.2 257.5 108" stroke="black" stroke-width="2" stroke-miterlimit="10" stroke-linecap="round"/>
<path d="M252.5 130.6C257.1 123 258.9 124 267.1 126.2C273.7 127.9 281.3 141.4 271.2 148.2C261.1 155 240.5 150.9 252.5 130.6Z" fill="#3442D9"/>
<path d="M229.703 108.187C230.625 107.482 230.773 106.129 230.035 105.163C229.297 104.198 227.952 103.987 227.031 104.691C226.11 105.396 225.961 106.749 226.699 107.714C227.437 108.68 228.782 108.891 229.703 108.187Z" fill="black"/>
<path d="M242.299 108.969C243.22 108.265 243.369 106.911 242.631 105.946C241.893 104.981 240.548 104.769 239.626 105.474C238.705 106.178 238.556 107.532 239.294 108.497C240.032 109.462 241.377 109.674 242.299 108.969Z" fill="black"/>
<path d="M241 107.4C251.7 116.2 247.3 122.5 255.9 135.5" stroke="white" stroke-width="3.00593" stroke-miterlimit="10" stroke-linecap="round"/>
<path d="M228.9 127.1C235.5 122.5 237.5 121.2 240 121.3L246.5 121.9L244.8 148.3L228.3 147.8L228.9 127.1Z" fill="#FFC619"/>
<path d="M260.9 120.4C261.025 120.051 261.066 119.677 261.022 119.309C260.978 118.941 260.849 118.588 260.646 118.278C260.442 117.968 260.17 117.709 259.85 117.522C259.529 117.335 259.17 117.225 258.8 117.2L247.8 115.6C247.002 115.515 246.198 115.707 245.525 116.144C244.851 116.581 244.348 117.236 244.1 118L237.9 141C237.776 141.35 237.734 141.723 237.778 142.091C237.822 142.459 237.951 142.812 238.154 143.122C238.358 143.432 238.63 143.691 238.951 143.878C239.271 144.065 239.63 144.175 240 144.2L251 145.8C251.799 145.885 252.602 145.693 253.276 145.256C253.949 144.819 254.452 144.164 254.7 143.4L260.9 120.4Z" fill="black"/>
<path d="M260.4 118.1L261.6 119.5L258.3 119.8L260.4 118.1Z" fill="black"/>
<path d="M265.8 133.3C264.4 131 263.1 128.1 259.3 127.5L258.8 132.3L265.8 133.3Z" fill="#FFC619"/>
<path d="M262 121.7C262.105 121.351 262.132 120.983 262.079 120.622C262.026 120.261 261.895 119.916 261.695 119.611C261.495 119.306 261.231 119.049 260.921 118.857C260.611 118.665 260.262 118.543 259.9 118.5L248.8 116.9C248.005 116.833 247.209 117.033 246.54 117.467C245.87 117.902 245.363 118.546 245.1 119.3L238.9 142.3C238.795 142.649 238.768 143.017 238.821 143.378C238.874 143.739 239.005 144.084 239.205 144.389C239.405 144.694 239.669 144.952 239.979 145.143C240.29 145.335 240.638 145.457 241 145.5L252.1 147C252.878 147.128 253.676 146.963 254.34 146.539C255.004 146.114 255.489 145.46 255.7 144.7L262 121.7Z" fill="white"/>
<path d="M258.6 130.8L263.1 131.5C264.012 131.601 264.847 132.056 265.427 132.766C266.007 133.477 266.284 134.387 266.2 135.3C266.177 135.775 266.055 136.24 265.842 136.665C265.628 137.089 265.328 137.465 264.961 137.766C264.593 138.068 264.167 138.289 263.708 138.415C263.25 138.542 262.77 138.571 262.3 138.5L259 138C257.975 137.853 257.027 137.371 256.303 136.63C255.58 135.888 255.122 134.929 255 133.9C254.975 133.442 255.056 132.984 255.236 132.562C255.416 132.14 255.691 131.765 256.038 131.465C256.386 131.166 256.798 130.95 257.242 130.835C257.686 130.72 258.151 130.708 258.6 130.8Z" fill="#FFC619"/>
<path d="M257.1 137.5L260.2 138C260.719 138.066 261.217 138.243 261.66 138.52C262.103 138.797 262.48 139.168 262.765 139.605C263.051 140.043 263.238 140.538 263.313 141.055C263.388 141.572 263.349 142.099 263.2 142.6C262.987 143.406 262.477 144.102 261.772 144.547C261.067 144.992 260.22 145.154 259.4 145L257.5 144.7C256.463 144.557 255.501 144.079 254.761 143.339C254.021 142.599 253.543 141.637 253.4 140.6C253.371 140.131 253.453 139.663 253.638 139.231C253.824 138.8 254.108 138.418 254.468 138.116C254.828 137.815 255.253 137.602 255.711 137.495C256.168 137.388 256.644 137.39 257.1 137.5Z" fill="#FFC619"/>
<path d="M247.4 148.9L236.6 147.4L237.1 143L247.9 144.6L247.4 148.9Z" fill="#FFC619"/>
<path d="M250 131.4L243.2 130.4C242.876 130.356 242.572 130.219 242.323 130.007C242.075 129.794 241.893 129.514 241.8 129.2L241.2 127.4L240.7 123.7L237 136.7L248 138.3C249.024 138.437 250.064 138.225 250.953 137.699C251.842 137.173 252.528 136.364 252.9 135.4C253.019 134.943 253.035 134.465 252.948 134.001C252.86 133.537 252.671 133.098 252.394 132.716C252.117 132.333 251.758 132.017 251.345 131.79C250.931 131.562 250.472 131.429 250 131.4Z" fill="#FFC619"/>
<path d="M247.8 138.2L237 136.7L237.5 143.9L245.8 145.1C246.813 145.251 247.846 145.043 248.722 144.514C249.598 143.985 250.262 143.166 250.6 142.2C250.737 141.75 250.77 141.275 250.697 140.81C250.623 140.345 250.444 139.904 250.175 139.518C249.905 139.133 249.551 138.814 249.139 138.585C248.728 138.357 248.27 138.225 247.8 138.2Z" fill="#FFC619"/>
<path d="M324.4 182.3C324.7 171.5 315.8 169.8 309.7 166C303.6 162.2 296.4 154.2 288.9 148.8C281.4 143.4 274.9 143.5 262.2 147.4L276.7 175.6C284.9 179.8 286.7 184.4 291.1 190.6C295.5 196.8 301.4 199.2 307.3 198.1C310.4 203.2 311 204.4 315.5 202.8C320 201.2 327.4 197.8 329.4 191.9C331.4 186 328.5 185 324.4 182.3Z" fill="#66BCFF"/>
<path d="M316.9 199.4C313.1 198.5 311.6 196.4 309.2 193.1L307.1 190.3C296.8 188.2 292.6 182.7 290.3 178.7C289.2 176.8 287.2 175.3 285.3 173.9C283.4 172.5 281.5 171 280.4 169.2C279.572 167.852 278.837 166.449 278.2 165C277.4 162.9 276.7 161.5 275.4 161.1C274.1 160.7 271.9 161.5 269.8 162.4C267.893 163.319 265.877 163.991 263.8 164.4C263.628 164.432 263.451 164.398 263.303 164.305C263.155 164.213 263.047 164.068 263 163.9C262.994 163.719 263.051 163.54 263.16 163.395C263.269 163.249 263.424 163.146 263.6 163.1C265.557 162.771 267.447 162.13 269.2 161.2C271.6 160.2 273.6 159.3 275.7 159.9C277.8 160.5 278.5 162.3 279.4 164.5C280.3 166.7 280.6 167.1 281.4 168.5C282.723 170.179 284.311 171.631 286.1 172.8C288.1 174.4 290.2 176 291.4 178.1C293.7 182.2 297.7 187.1 307.6 189.1H307.8L308 189.3C308.9 190.4 309.6 191.5 310.3 192.4C312.5 195.5 313.9 197.4 317.1 198.2C317.187 198.193 317.273 198.208 317.352 198.244C317.431 198.281 317.499 198.337 317.549 198.408C317.6 198.478 317.631 198.561 317.64 198.647C317.649 198.734 317.635 198.821 317.6 198.9C317.607 198.987 317.592 199.074 317.556 199.152C317.519 199.231 317.463 199.299 317.393 199.35C317.322 199.4 317.239 199.431 317.153 199.44C317.067 199.449 316.98 199.435 316.9 199.4Z" fill="#45AAF7"/>
<path d="M276.1 159C274.756 163.293 273.885 167.719 273.5 172.2" stroke="black" stroke-width="2" stroke-miterlimit="10" stroke-linecap="round"/>
<path d="M282 211C272.9 219.2 265.2 216.9 261.6 216.5C258 216.1 258.4 213.5 258.1 211.3C257.8 209.1 257.6 205.8 257.6 205.8C248.5 205.2 247.4 199 247.2 193.5C247 188 245.6 187.2 244.9 183.3C233.928 181.329 223.558 176.859 214.592 170.234C205.626 163.61 198.307 155.009 193.2 145.1L202.7 138.2L223.9 152C238.2 146.7 246.1 144 253.8 143.5C261.5 143 269.1 145.9 271.6 156.6C274.1 167.3 274.4 170.6 276.7 175.7C277.3 177 278.3 178.8 279.3 180.7C282.1 186.4 285 194.4 279.3 203.1C279.995 205.799 280.898 208.441 282 211Z" fill="#8CD9FF"/>
<path d="M208.7 165.3C208.4 158.2 211.1 153.2 216 152.4L203.6 143.8L194.6 147.7C196.9 154.1 202.8 161.1 208.7 165.3Z" fill="black"/>
<path d="M264.6 212.9L264.8 211.6C263 211.3 262.9 210 262.4 203.9V203.1L262 202.9C258 201.9 255.3 199.5 255.1 191.4C255.066 187.553 254.285 183.749 252.8 180.2C252.412 179.367 252.11 178.495 251.9 177.6C251.7 176.8 251.4 176 251.2 175.3C250.071 172.477 249.759 169.393 250.3 166.4C250.7 163.3 250.4 161.6 249.4 160.7C248.4 159.8 245.9 160.1 242.2 161.3H241.7C235.8 163.2 224 167.1 212.1 168.1L213.6 169.2C225.2 168.1 236.4 164.4 242.1 162.6L242.6 162.4C245.6 161.4 247.7 160.9 248.6 161.6C249.5 162.3 249.3 163.6 249 166.1C248.467 169.299 248.812 172.583 250 175.6C250.259 176.316 250.46 177.052 250.6 177.8C250.9 178.7 251.2 179.6 251.6 180.5C253.027 183.924 253.774 187.592 253.8 191.3C254 198.8 256.1 202.5 261.2 204C261.6 210.1 261.8 212.4 264.6 212.9Z" fill="#66BCFF"/>
<path d="M229.1 125.7C226.2 123.2 224 123.4 220.5 124.9C216.8 121.5 212 121 207 122.7C202 124.4 194.3 126.7 189.8 127.9C189.549 127.994 189.276 128.013 189.014 127.956C188.752 127.898 188.512 127.767 188.322 127.578C188.133 127.388 188.002 127.148 187.945 126.886C187.887 126.624 187.907 126.351 188 126.1L191.3 114.1C180.6 122.1 177.1 139.2 180.5 148.5C183.9 157.8 198.7 157.7 203.4 155.1C208.1 152.5 209.7 151.7 215.1 152.7C220.5 153.7 224.7 154.4 231.8 149L236 147.6C237.6 138.5 236.2 131.9 229.1 125.7Z" fill="#3442D9"/>
<path d="M229.1 125.7C226.2 123.2 224 123.4 220.5 124.9C216.8 121.5 212 121 207 122.7C202 124.4 194.3 126.7 189.8 127.9" stroke="black" stroke-width="2" stroke-miterlimit="10" stroke-linecap="round"/>
<path d="M220.5 124.9C223.487 127.213 225.974 130.107 227.813 133.406C229.652 136.706 230.804 140.344 231.2 144.1" stroke="black" stroke-width="2" stroke-miterlimit="10" stroke-linecap="round"/>
<path d="M250.8 121.9C250.845 121.762 250.86 121.616 250.843 121.471C250.826 121.327 250.778 121.188 250.701 121.065C250.625 120.941 250.523 120.835 250.402 120.755C250.281 120.675 250.144 120.622 250 120.6H249C248.722 120.539 248.431 120.589 248.189 120.738C247.946 120.887 247.771 121.124 247.7 121.4L246.8 124.7C246.754 124.846 246.742 125 246.765 125.151C246.788 125.302 246.845 125.445 246.931 125.571C247.018 125.696 247.133 125.8 247.266 125.875C247.399 125.949 247.548 125.992 247.7 126H248.7C248.963 126.034 249.229 125.971 249.45 125.824C249.67 125.677 249.83 125.456 249.9 125.2L250.8 121.9Z" fill="#29CC7A"/>
<path d="M234.8 102.7C235.573 101.135 236.714 99.7813 238.124 98.7538C239.535 97.7262 241.174 97.0559 242.9 96.8001C243.1 96.8001 243.2 96.6001 243.1 96.5001C241.8 91.7001 242.4 89.0001 244.1 85.5001C244.117 85.4747 244.128 85.4458 244.132 85.4156C244.136 85.3853 244.133 85.3545 244.124 85.3256C244.114 85.2966 244.098 85.2703 244.076 85.2485C244.055 85.2268 244.029 85.2102 244 85.2001C238.4 82.8001 236.3 78.8001 235.7 75.8001C235.6 75.6001 235.3 75.5001 235.2 75.7001C232.7 80.7001 229.3 80.9001 226.4 80.5001C226.2 80.5001 226.1 80.7001 226.2 80.8001C229.1 86.4001 227 90.4001 224.1 93.2001C224.085 93.2393 224.077 93.2814 224.079 93.3236C224.081 93.3658 224.092 93.407 224.111 93.4448C224.13 93.4826 224.156 93.5159 224.189 93.5427C224.221 93.5694 224.259 93.589 224.3 93.6001C229.9 94.6001 232.9 98.3001 234.3 102.6C234.4 102.8 234.7 102.9 234.8 102.7Z" fill="#FFC619"/>
<path d="M247.8 138.2L242.1 137.4" stroke="black" stroke-width="2" stroke-miterlimit="10" stroke-linecap="round"/>
<path d="M258.2 137.9L261.4 138.4" stroke="black" stroke-width="2" stroke-miterlimit="10" stroke-linecap="round"/>
<path d="M235.5 75.6001C238 70.0001 237.8 66.1001 237.1 63.9001" stroke="black" stroke-width="2" stroke-miterlimit="10" stroke-linecap="round"/>
<path d="M243.5 85.4001C245.06 85.6392 246.654 85.5397 248.172 85.1083C249.691 84.677 251.099 83.9239 252.3 82.9001" stroke="black" stroke-width="2" stroke-miterlimit="10" stroke-linecap="round"/>
<path d="M234.8 102.7C234.808 103.444 234.707 104.186 234.5 104.9" stroke="black" stroke-width="2" stroke-miterlimit="10" stroke-linecap="round"/>
<path d="M224.6 93.3002C220.9 95.9002 215.3 95.5002 211.4 94.3002" stroke="black" stroke-width="2" stroke-miterlimit="10" stroke-linecap="round"/>
<path d="M226.4 80.5002C225 77.6002 222.4 74.3002 220 73.2002" stroke="black" stroke-width="2" stroke-miterlimit="10" stroke-linecap="round"/>
<path d="M243.1 96.5001C244.39 97.1886 245.77 97.6935 247.2 98.0001" stroke="black" stroke-width="2" stroke-miterlimit="10" stroke-linecap="round"/>
<path d="M232.4 85.8002C234.1 92.4002 236.3 92.0002 237.3 90.0002C238.3 88.0002 239 85.5002 240.6 85.7002C242.2 85.9002 241.8 88.7002 239.9 92.7002C238 96.7002 234.9 97.6002 232 94.1002C229.1 90.6002 229 87.2002 228.9 84.8002C228.8 82.4002 231.3 81.8002 232.4 85.8002Z" fill="#C40655"/>
<path d="M228.4 106.6C229.6 120.4 222.6 127 220.4 140.7" stroke="white" stroke-width="3.00593" stroke-miterlimit="10" stroke-linecap="round"/>
<path d="M244.1 183.4C242.3 177.5 241.5 166.7 246.4 157.2" stroke="black" stroke-width="2" stroke-miterlimit="10" stroke-linecap="round"/>
<path d="M243 168.7C241.872 166.508 241.321 164.064 241.4 161.6" stroke="black" stroke-width="2" stroke-miterlimit="10" stroke-linecap="round"/>
<path d="M193.7 126.8L186.3 129.2" stroke="black" stroke-width="2" stroke-miterlimit="10" stroke-linecap="round"/>
<path d="M267.2 125.9L272.2 127.3" stroke="black" stroke-width="2" stroke-miterlimit="10" stroke-linecap="round"/>
<path d="M356.4 192.2C355.851 193.002 355.214 193.74 354.5 194.4C351.3 197.6 344 201.2 340.1 202.7C337.133 203.639 334.404 205.208 332.1 207.3C329.2 209.6 325.6 212.7 323.1 210.9C319.951 208.001 317.073 204.821 314.5 201.4C314.354 201.221 314.259 201.006 314.224 200.777C314.188 200.549 314.215 200.315 314.3 200.1C315.7 196.1 320.2 190.4 326.7 187.4C326.915 187.315 327.149 187.288 327.377 187.324C327.606 187.359 327.821 187.454 328 187.6C331.8 190.3 334.1 191 337.2 190.9C340.3 190.8 346.3 188.8 351.2 187.4C356.1 186 356.2 188.2 356.4 192.2Z" fill="#FFC619"/>
<path d="M317.3 204.9C319.086 207.038 321.024 209.043 323.1 210.9C325.6 212.7 329.2 209.6 332.1 207.3C334.404 205.208 337.133 203.639 340.1 202.7C344 201.2 351.3 197.6 354.5 194.4C355.214 193.74 355.851 193.002 356.4 192.2C356.2 188.2 355.3 186.2 351.2 187.4C347.1 188.6 344.8 189.6 341.8 190.3C340.908 190.539 340.099 191.021 339.463 191.691C338.828 192.362 338.39 193.196 338.2 194.1C338.1 195.2 337.9 196.3 337.7 197.6C332.3 196.5 327.1 198.3 326 205.4C326 205.4 321.4 202.9 317.3 204.9Z" fill="#FFE75C"/>
<path d="M354.5 194.4L356.4 192.3C356.527 192.089 356.596 191.847 356.6 191.6C356.508 190.842 356.305 190.101 356 189.4C355.2 190.9 353.8 192.4 350.7 194.7C345.8 198.3 340.3 199.6 337 200.7C333.979 201.826 331.222 203.562 328.9 205.8C327.075 207.862 324.67 209.325 322 210L323.1 210.9C325.6 212.7 329.2 209.6 332.1 207.3C334.404 205.208 337.133 203.639 340.1 202.7C344 201.2 351.3 197.6 354.5 194.4Z" fill="white"/>
<path d="M293.5 198.9C288.4 197.5 283.2 199.9 278.6 208.6C277.3 207.6 274.1 206.5 269.3 207.4C264.5 208.3 262.7 210.4 261.9 212C261.424 212.924 261.283 213.984 261.5 215C261.8 216.3 262.2 218 262.8 220.8C263.7 225.1 263.2 228.9 265.6 229.3L299.2 205.1C299.2 205.1 300.1 200.7 293.5 198.9Z" fill="#FFC619"/>
<path d="M293.5 198.9C288.4 197.5 283.2 199.9 278.6 208.6C277.962 209.902 277.394 211.237 276.9 212.6C271.6 212.1 269.1 214.4 268.2 219.5C268.2 219.5 264.7 217.1 262.6 219.9C262.7 220.2 262.7 220.5 262.8 220.8C263.7 225.1 263.2 228.9 265.6 229.3L299.2 205.1C299.2 205.1 300.1 200.7 293.5 198.9Z" fill="#FFE75C"/>
<path d="M299.2 203.7L296.7 201.4C292.4 200.7 288.8 200.6 285 204.9C281.2 209.2 278.7 213.9 274.7 216.7C269 220.9 264.2 222.6 263.5 225.7C262.8 228.8 264.2 229.1 265.6 229.3L299.2 205.1C299.323 204.642 299.323 204.159 299.2 203.7Z" fill="white"/>
<path d="M294.9 199.9L297.3 200.6C297.509 200.634 297.707 200.714 297.88 200.835C298.054 200.957 298.197 201.116 298.3 201.3C299.227 202.866 299.613 204.693 299.4 206.5L290.6 204.9C293.5 203.5 294.5 202.2 294.2 200.5C294.17 200.406 294.168 200.306 294.195 200.211C294.222 200.116 294.276 200.032 294.351 199.968C294.426 199.903 294.518 199.863 294.615 199.851C294.713 199.839 294.812 199.856 294.9 199.9Z" fill="white"/>
<path d="M265.8 229.4C274.4 231.1 278.2 228.4 281.9 224.6C283.435 222.902 285.222 221.452 287.2 220.3C292.3 217.4 296.3 214.3 299 209.4C301.7 204.5 293.4 201.3 288 205.8C282.6 210.3 282.3 215.6 271.6 222.2C264.3 226.8 263.3 228.9 265.8 229.4Z" fill="black"/>
<path d="M267.023 213.793C267.073 212.801 266.622 211.971 266.015 211.94C265.409 211.909 264.876 212.689 264.826 213.682C264.775 214.675 265.227 215.505 265.833 215.535C266.44 215.566 266.973 214.786 267.023 213.793Z" fill="white"/>
<path d="M356.7 191C356.524 189.986 356.187 189.007 355.7 188.1C355.6 188 355.5 187.9 355.4 188H355.3C355.1 188 355.1 188.1 355.1 188.2C355.6 190.3 355.8 192.7 354.7 194.1C357 192.3 356.8 191.3 356.7 191Z" fill="white"/>
<path d="M321.024 201.633C321.941 201.428 322.43 200.126 322.116 198.724C321.803 197.323 320.806 196.353 319.89 196.558C318.974 196.763 318.485 198.065 318.798 199.466C319.111 200.867 320.108 201.837 321.024 201.633Z" fill="white"/>
<path d="M395.999 351.4C438.299 351.4 472.999 333.8 518.599 293.6C564.199 253.4 580.199 240.2 593.099 227.7C605.999 215.2 605.099 207.1 598.399 191.1C591.699 175.1 587.299 177.4 587.299 177.4C586.499 164.4 573.799 142.9 559.799 125.6C545.799 108.3 537.399 111.1 521.999 111.1C506.599 111.1 501.499 115.3 494.599 133.7C487.699 152.1 470.499 167.7 437.999 173.4C405.499 179.1 387.699 178.8 386.799 195.1C385.899 211.4 386.799 239.5 372.399 261.7C354.498 270.352 335.679 276.96 316.299 281.4C304.899 284 302.499 291.5 301.399 301.3C300.299 311.1 304.299 316.4 306.199 319.5C302.299 323.2 303.099 324.8 304.999 333.5C305.799 337 306.699 340.5 307.499 343.6C308.151 345.853 309.518 347.833 311.394 349.24C313.27 350.647 315.554 351.405 317.899 351.4H395.999Z" fill="#66BCFF"/>
<path d="M301.399 301.3C300.299 311.1 304.299 316.4 306.199 319.5L384.499 328.5L460.299 317.4C460.299 317.4 510.299 277.1 503.499 263.7C496.699 250.3 482.399 262.9 463.299 275.9C444.199 288.9 424.399 290.1 401.699 286.8C378.999 283.5 351.499 273.8 316.299 281.4C304.899 284 302.499 291.5 301.399 301.3Z" fill="#45AAF7"/>
<path d="M511.599 257C511.699 239.7 511.099 235.6 516.899 236.4C522.699 237.2 532.199 239.1 532.199 239.1L521.899 255.4L511.599 257Z" fill="#A3E1FF"/>
<path d="M541.999 230.1C541.999 221.7 541.299 216.2 543.599 215C545.899 213.8 548.599 215.3 553.399 219.6C558.199 223.9 541.999 230.1 541.999 230.1Z" fill="#A3E1FF"/>
<path d="M311.199 317.4C309.899 307.3 310.199 299.3 312.899 297.3C315.599 295.3 318.199 299.9 320.099 303.9C322.521 308.976 325.543 313.743 329.099 318.1L311.199 317.4Z" fill="#A3E1FF"/>
<path d="M397.999 319.6C401.299 306.1 404.099 302.8 406.899 302.6C409.699 302.4 411.099 308.8 415.099 317.9L408.499 321L397.999 319.6Z" fill="#A3E1FF"/>
<path d="M577.999 196.1C535.499 237.2 510.099 259.8 474.499 286.3C438.899 312.8 422.999 319.7 393.099 319.7C363.199 319.7 343.999 302.9 306.199 319.5C302.299 323.2 303.099 324.8 304.999 333.5C305.799 337 306.699 340.5 307.499 343.6C308.151 345.853 309.518 347.833 311.394 349.24C313.27 350.647 315.554 351.405 317.899 351.4H395.999C438.299 351.4 472.999 333.8 518.599 293.6C564.199 253.4 580.199 240.2 593.099 227.7C605.999 215.2 605.099 207.1 598.399 191.1C591.699 175.1 587.299 177.4 587.299 177.4C587.299 181.9 587.599 186.7 577.999 196.1Z" fill="white"/>
<path d="M598.899 192.2C598.799 198 595.199 204.6 585.399 213.6C566.199 231.1 526.499 266.9 499.199 290.1C469.299 315.8 441.499 337 404.499 337C391.599 337 377.499 334.3 363.799 331.7C339.699 327.1 316.799 322.8 305.199 334.4C305.299 335 305.499 335.7 305.599 336.3C316.399 324.4 339.299 328.7 363.499 333.3C377.299 335.9 391.499 338.6 404.499 338.6C441.999 338.6 471.199 316.2 500.199 291.4C527.499 268.1 567.299 232.2 586.399 214.8C593.599 208.2 598.799 202.1 600.099 195.4L598.899 192.2Z" fill="#FFE75C"/>
<path d="M486.999 319L473.099 287.4C467.766 291.333 462.866 294.833 458.399 297.9L457.199 299.3C462.399 297.1 467.599 300 467.999 308.9C468.099 313.7 468.099 323.4 468.099 331.2C474.616 327.479 480.925 323.407 486.999 319Z" fill="black"/>
<path d="M323.699 343.4C315.699 343.5 311.799 346.7 314.999 349.8C316.164 350.882 317.71 351.457 319.299 351.4H387.999C353.799 351.4 350.299 343 323.699 343.4Z" fill="black"/>
<path d="M559.299 166.9C548.999 180.1 545.399 185.3 549.699 199.4C551.499 205.5 553.799 212 555.699 217.4L577.999 196.1C587.599 186.7 587.299 181.9 587.299 177.4C586.599 166.3 577.299 149 565.799 133.4C571.599 141.8 569.599 153.7 559.299 166.9Z" fill="#45AAF7"/>
<path d="M545.599 150.1C551.499 127.6 550.899 112.6 536.399 111.1C532.099 110.7 527.499 111.1 521.999 111.1C506.499 111.1 501.499 115.3 494.599 133.7C487.699 152.1 470.499 167.7 437.999 173.4C405.499 179.1 387.699 178.8 386.799 195.1C385.899 211.4 386.799 239.5 372.399 261.7C370.299 265.4 372.799 267.9 402.699 267.9C432.599 267.9 450.399 266.1 455.399 253.6C460.399 241.1 467.599 213.8 471.199 203C474.799 192.2 474.199 186 494.099 181.5C513.999 177 539.999 171.8 545.599 150.1Z" fill="#8CD9FF"/>
<path d="M476.499 178.7C492.499 172.1 503.799 173.6 520.799 165.5C537.799 157.4 539.999 151.4 542.099 140.3C544.199 129.2 545.699 116.1 535.399 115.2C525.099 114.3 515.799 114.7 511.099 116.3C506.399 117.9 505.199 120.8 500.099 131.3C494.999 141.8 492.499 157.4 469.599 167.6L476.499 178.7Z" fill="black"/>
<path d="M341.699 312.4C341.799 317.5 343.199 324.8 345.999 325.5C348.799 326.2 350.099 320.5 352.999 313.4C349.899 310.2 341.699 306.9 341.699 312.4Z" fill="#A3E1FF"/>
<path d="M469.299 289.2C466.821 289.302 464.397 289.951 462.199 291.1C452.899 295.8 452.999 299.8 453.299 301.2C465.999 293.5 471.599 302 475.199 326.9C476.599 336.7 479.099 341.5 486.299 341.5C495.099 341.5 500.299 335.3 499.699 319.3C499.564 316.281 499.23 313.275 498.699 310.3C496.199 296.9 490.999 283.4 478.399 283.4C476.509 283.494 474.677 284.078 473.081 285.095C471.485 286.112 470.182 287.527 469.299 289.2Z" fill="#FF78B9"/>
<path d="M563.199 244.1C557.799 248.9 552.399 249.3 551.199 245.1C549.999 240.9 553.299 233.5 558.699 228.8L568.099 220.5C573.499 215.7 578.899 215.3 580.099 219.5C581.299 223.7 577.899 231.1 572.599 235.8L563.199 244.1Z" fill="#FFA8D2"/>
<path d="M469.299 289.2C477.699 290.1 484.099 294 486.799 304.6C488.699 312.1 488.099 320.9 489.399 328.5" stroke="black" stroke-width="2" stroke-linecap="round" stroke-linejoin="round"/>
<path d="M564.999 169.2L562.499 172.6C554.599 182.9 551.699 186.7 560.099 213.2L561.399 212C553.499 187 556.099 183.5 563.699 173.6L566.299 170.2C572.499 161.8 574.799 153.5 574.599 146.4L572.799 143.6C573.799 150.9 571.799 160 564.999 169.2Z" fill="#5865F2"/>
<path d="M451.099 307.6C451.899 303.1 450.899 300.9 448.599 301.2C446.299 301.5 444.299 302.9 442.099 308C443.899 327.5 449.099 319.9 451.099 307.6Z" fill="#A3E1FF"/>
<path d="M533.301 118.4L549.001 116.4C551.501 116.1 552.401 110.4 553.501 103.2C554.601 96.0001 553.301 82.9001 553.301 82.9001L537.101 87.8001L533.301 118.4Z" fill="#FF78B9"/>
<path d="M576.901 78.2001C570.201 70.7001 536.201 44.5001 536.201 44.5001L528.201 56.0001C528.201 56.0001 539.501 68.5001 547.601 76.9001C531.201 78.2001 501.601 82.1001 501.601 82.1001C480.601 77.9001 471.701 75.9001 471.701 75.9001L493.301 55.4001L485.401 43.6001C485.401 43.6001 464.801 56.2001 453.201 65.3001C441.601 74.4001 439.701 85.6001 450.701 94.1001C461.701 102.6 465.401 105.2 465.401 105.2L536.301 112.5C557.101 106.7 569.501 100.4 577.001 93.9001C584.501 87.4001 583.601 85.7001 576.901 78.2001Z" fill="#FFC619"/>
<path d="M459.501 74.8C462.001 75.2 466.401 76.4001 466.401 76.4001" stroke="black" stroke-width="2" stroke-linecap="round" stroke-linejoin="round"/>
<path d="M531.901 40.9001L524.801 52.8001L532.801 61.0002C535.401 58.1002 538.001 53.0001 537.201 45.3001L531.901 40.9001Z" fill="black"/>
<path d="M485.901 92.9001C476.301 81.1001 472.901 76.0001 470.901 70.1001C469.501 65.8001 478.001 68.4001 489.001 71.7001C500.001 75.0001 498.301 78.1001 485.901 92.9001Z" fill="#FF78B9"/>
<path d="M472.101 75.6001C462.001 86.9001 461.801 100.7 462.901 120C462.901 120 445.501 137.5 448.001 152.8C450.501 168.1 474.301 174.7 501.401 174.4C523.201 174.2 525.601 169.1 527.601 158.8C528.801 152.1 529.701 144.4 530.301 138.4C530.906 132.093 532.492 125.918 535.001 120.1C548.401 89.0001 537.601 77.8001 537.601 77.8001L501.401 80.7001L472.101 75.6001Z" fill="#FF78B9"/>
<path d="M480.101 59.4001C471.601 65.7001 473.401 75.3001 485.401 88.5001L490.801 93.9001L525.701 88.2001C536.901 74.3001 534.701 65.0001 530.601 59.2001C536.301 49.8001 536.701 43.3001 536.601 37.5001C536.501 27.7001 527.601 12.3001 505.201 12.5001C493.001 12.6001 482.201 17.4001 478.301 32.9001C476.901 38.3001 476.601 47.1001 480.101 59.4001Z" fill="#FFE75C"/>
<path d="M523.301 25.2001C523.568 25.1986 523.833 25.2536 524.077 25.3613C524.322 25.469 524.541 25.6272 524.72 25.8253C524.9 26.0235 525.035 26.2573 525.118 26.5115C525.201 26.7656 525.229 27.0343 525.201 27.3001L524.001 40.8001C523.646 43.8279 522.222 46.6296 519.986 48.7011C517.749 50.7726 514.847 51.9779 511.801 52.1001H509.101C505.917 52.1303 502.831 50.9999 500.42 48.9202C498.009 46.8405 496.438 43.9539 496.001 40.8001L495.501 36.3001C495.428 35.77 495.164 35.2847 494.759 34.935C494.354 34.5853 493.836 34.3951 493.301 34.4001C492.75 34.3978 492.219 34.602 491.812 34.9722C491.405 35.3425 491.151 35.852 491.101 36.4001L490.501 43.6001C490.279 45.9795 489.187 48.1935 487.434 49.8175C485.681 51.4415 483.39 52.3611 481.001 52.4001C479.568 52.4542 478.141 52.1966 476.818 51.6451C475.495 51.0936 474.307 50.2613 473.337 49.2057C472.367 48.1502 471.638 46.8966 471.2 45.5317C470.762 44.1667 470.626 42.7229 470.801 41.3001L472.001 27.7001C472.072 27.1603 472.331 26.6631 472.734 26.2968C473.137 25.9306 473.657 25.7192 474.201 25.7001L523.301 25.2001Z" fill="black"/>
<path d="M524.601 25.7001L536.601 37.5001V39.9001L524.701 31.6001L524.601 25.7001Z" fill="black"/>
<path d="M537.601 77.7C531.972 72.383 525.344 68.2362 518.101 65.5C511.601 63.2 510.101 62.6 508.601 66.3C507.101 70 505.501 74.2 504.901 75.6C504.301 77 497.201 81.8 492.901 85.4C488.601 89 484.101 96.7 484.101 96.7L529.701 100.2L537.601 77.7Z" fill="#FF78B9"/>
<path d="M547.401 76.7001L553.301 82.9001C550.601 91.3001 548.901 101.8 547.901 113.5L524.601 115.2L537.601 77.8001L547.401 76.7001Z" fill="#FF78B9"/>
<path d="M472.101 75.6L467.801 74.8C467.141 74.7044 466.469 74.7532 465.83 74.9432C465.191 75.1331 464.601 75.4596 464.101 75.9001C459.206 80.3554 455.904 86.2912 454.701 92.8C453.401 100.4 453.801 101.2 462.601 105.9C468.501 109.1 474.601 95.1 477.901 85.6C478.284 84.5643 478.434 83.4567 478.339 82.3564C478.245 81.2561 477.909 80.1902 477.355 79.2349C476.8 78.2796 476.042 77.4585 475.134 76.8301C474.226 76.2018 473.19 75.7818 472.101 75.6Z" fill="#FF78B9"/>
<path d="M476.301 153.4C468.645 144.477 460.026 136.428 450.601 129.4L428.201 141.1L435.501 162.9C435.501 162.9 441.501 170.5 447.101 176.5C452.701 182.5 462.801 182.7 481.401 184.3C488.401 171.8 485.201 163.9 476.301 153.4Z" fill="#2835BD"/>
<path d="M439.801 162.5L441.801 152.8" stroke="black" stroke-width="2" stroke-linecap="round" stroke-linejoin="round"/>
<path d="M518.401 149.3C516.601 144.4 511.101 140.5 486.501 139.3L477.401 130.1L452.101 149.4C461.101 164.6 471.301 182.9 481.401 184.3C491.501 185.7 500.601 185 512.601 177.7C520.201 173 521.201 170.8 521.401 166.8C521.248 160.853 520.238 154.959 518.401 149.3Z" fill="#3442D9"/>
<path d="M545.601 150.1C540.001 171.8 514.001 176.9 494.101 181.5C476.101 185.6 474.901 191 472.201 200L458.601 196.4V182.4L476.501 178.7C492.501 172.1 503.801 173.6 520.801 165.5C537.801 157.4 540.001 151.4 542.101 140.3C543.401 133.8 544.401 126.4 542.801 121.3L548.501 122.1C550.001 128.9 548.701 138.5 545.601 150.1Z" fill="#8CD9FF"/>
<path d="M393.401 171.6C392.075 172.403 391.058 173.629 390.514 175.08C389.969 176.531 389.93 178.123 390.401 179.6C393.301 188.8 394.601 195.9 391.901 218.3C389.201 240.7 384.701 253.1 382.601 257.7C382.472 257.973 382.41 258.273 382.419 258.575C382.429 258.876 382.511 259.171 382.657 259.435C382.804 259.699 383.011 259.924 383.262 260.092C383.513 260.26 383.801 260.366 384.101 260.4C395.301 262.1 412.101 261.9 430.501 259.5C433.605 259.093 436.546 257.869 439.023 255.954C441.5 254.039 443.425 251.502 444.601 248.6C449.331 236.862 453.208 224.797 456.201 212.5C462.901 184.9 462.101 185.4 476.501 178.7C475.401 168.8 475.501 159.3 464.701 157.9C452.101 156.3 438.301 162.5 418.501 167.9C414.001 163.9 409.901 161.9 393.401 171.6Z" fill="#45AAF7"/>
<path d="M447.601 159.4C439.301 161.4 429.901 164.8 418.501 167.9C415.201 165 412.101 163.1 404.201 166.2C403.908 166.948 403.674 167.717 403.501 168.5C399.901 186.4 393.101 215.7 413.501 214.1C433.901 212.5 436.201 200.4 435.601 189.4C435.001 178.4 433.701 172.3 435.601 169.1C437.501 165.9 444.201 160.3 447.601 159.4Z" fill="#287CEB"/>
<path d="M465.901 184.7C464.501 173 463.601 167.4 460.401 165.2C457.201 163 456.101 163.7 451.901 164.6C447.701 165.5 442.401 167.1 435.601 169.1C422.901 172.8 407.101 177.5 401.101 177.1L399.101 176.8C400.501 175.3 409.101 172.2 414.801 170.1L418.801 168.6C418.895 168.577 418.983 168.535 419.06 168.477C419.137 168.418 419.201 168.344 419.248 168.26C419.295 168.175 419.324 168.082 419.333 167.985C419.342 167.889 419.331 167.792 419.301 167.7L418.501 167.9L417.801 167.3L414.201 168.6C400.901 173.5 397.101 175.2 397.401 177.1C397.701 179 399.201 178.6 401.001 178.7C407.201 179.1 422.501 174.6 436.101 170.6C442.801 168.6 448.601 166.9 452.201 166.2C455.801 165.5 458.101 165.5 459.501 166.5C460.901 167.5 463.101 174.5 464.401 186.3L465.901 184.7Z" fill="black"/>
<path d="M471.001 39.3001L490.001 25.5001L482.901 25.6001L471.501 33.9001L471.001 39.3001Z" fill="#5865F2"/>
<path d="M475.601 51.0001C477.238 51.9546 479.106 52.4391 481.001 52.4001C483.39 52.3611 485.681 51.4415 487.434 49.8175C489.187 48.1935 490.279 45.9795 490.501 43.6001L490.801 40.0001L475.601 51.0001Z" fill="#5865F2"/>
<path d="M523.301 25.2001H515.401L495.901 39.3001V40.8001C496.126 42.3465 496.634 43.8382 497.401 45.2001L524.501 25.7001C524.164 25.4107 523.744 25.2356 523.301 25.2001Z" fill="#5865F2"/>
<path d="M524.001 40.8L524.601 34.3L502.401 50.4001C504.451 51.5343 506.758 52.1199 509.101 52.1H511.801C514.847 51.9779 517.749 50.7726 519.986 48.701C522.222 46.6295 523.646 43.8278 524.001 40.8Z" fill="#5865F2"/>
<path d="M489.501 53.6001C492.169 53.0179 494.932 53.0179 497.601 53.6001" stroke="black" stroke-width="2" stroke-linecap="round" stroke-linejoin="round"/>
<path d="M405.701 133C405.801 133.3 405.901 133.5 406.001 133.5C406.101 133.5 406.201 133.4 406.301 133.1" fill="black"/>
<path d="M422.701 128.4C411.901 132.6 396.801 141.4 383.801 148.7C376.601 152.7 374.401 155.1 378.201 162.4C382.001 169.7 389.201 176.7 394.601 181.5C400.001 186.3 403.001 184.3 407.001 181.7L435.501 162.9L450.601 129.4C444.301 125 433.601 124.1 422.701 128.4Z" fill="#2835BD"/>
<path d="M392.201 168.1C396.801 169 396.801 169.5 402.501 165.8C408.201 162.1 436.901 144.8 439.801 142.9" stroke="#4150F2" stroke-width="2" stroke-miterlimit="10" stroke-linecap="round"/>
<path d="M464.401 117.8C459.901 114.5 456.801 114.3 432.601 112.3C408.401 110.3 397.101 107.8 394.301 112.2C391.501 116.6 394.001 127.6 396.801 135.9C399.601 144.2 401.201 146.9 405.101 147.2C409.001 147.5 445.401 148.7 452.101 149.4L455.401 155L486.501 139.3C486.501 139.3 468.801 121.1 464.401 117.8Z" fill="#3442D9"/>
<path d="M387.601 161.4C381.601 156.5 379.201 155.6 379.901 158.9C380.601 162.2 384.401 167.1 388.501 171.5C392.601 175.9 397.301 180.4 398.901 180.1C400.501 179.8 398.601 176.8 396.101 172C393.966 167.959 391.081 164.362 387.601 161.4Z" fill="black"/>
<path d="M394.201 168.7L389.201 172.2L385.101 175.1C380.201 178.7 382.201 181.6 382.601 185C383.001 188.4 381.901 190.9 379.601 190.9C377.301 190.9 373.901 181.3 371.501 176.7C369.101 172.1 361.201 168.4 357.101 164.9C355.401 163.4 355.001 160.9 357.101 160.1C356.201 158.8 355.001 155.5 358.001 154.5C361.001 153.5 365.501 159 368.001 160.7C370.501 162.4 373.601 164 375.901 163C377.482 162.296 379.018 161.494 380.501 160.6L383.901 158.5L387.601 161.4C390.112 163.533 392.331 165.987 394.201 168.7Z" fill="#FF78B9"/>
<path d="M545.601 150.1C540.001 171.8 514.001 176.9 494.101 181.5C474.201 186.1 474.801 192.1 471.201 203C467.601 213.9 460.401 241.2 455.401 253.6L521.901 214.5L549.101 162.9L545.601 150.1Z" fill="#66BCFF"/>
<path d="M468.501 237.9C466.301 245.6 464.501 251.4 463.501 255.6C462.501 259.8 467.101 259.4 472.001 258C476.901 256.6 479.001 254.5 478.201 250.2C477.401 245.9 470.901 229.2 468.501 237.9Z" fill="white"/>
<path d="M387.601 161.4L383.901 158.5C383.001 158.4 382.501 158.4 382.101 158.7C381.701 159 381.801 159.2 381.901 159.7C384.201 159.3 389.901 163.4 390.101 171.5C391.401 172.1 392.101 172.5 392.601 172.2C393.101 171.9 393.801 170.5 394.201 168.7C392.331 165.987 390.112 163.533 387.601 161.4Z" fill="black"/>
<path d="M378.801 186.5C377.801 182.7 374.401 174.9 371.501 171.8C368.601 168.7 364.001 161.4 362.501 159C361.001 156.6 357.101 153.6 356.201 156.3C356.006 157.635 356.328 158.994 357.101 160.1C355.001 160.9 355.401 163.4 357.101 164.9C361.201 168.4 368.901 171.6 371.501 176.7C374.101 181.8 375.901 189.2 378.701 190.7L379.501 190.9C380.001 190.8 379.701 189.4 378.801 186.5Z" fill="#DE3A93"/>
<path d="M493.201 6.5001C491.934 10.0718 491.794 13.9465 492.801 17.6001C492.96 18.2428 493.335 18.8115 493.863 19.2118C494.39 19.612 495.039 19.8196 495.701 19.8001H501.801C502.48 19.8032 503.152 19.6623 503.773 19.3865C504.393 19.1106 504.948 18.7063 505.401 18.2001C509.101 14.3001 515.801 13.3001 521.001 15.5001L524.101 11.0001C524.433 10.5593 524.596 10.0137 524.559 9.4629C524.522 8.91213 524.289 8.39293 523.901 8.0001C520.869 5.13476 517.251 2.9622 513.297 1.63271C509.343 0.303222 505.148 -0.151461 501.001 0.300101C499.254 0.509967 497.6 1.20074 496.223 2.29545C494.846 3.39015 493.799 4.84577 493.201 6.5001Z" fill="#FF8C19"/>
<path d="M548.301 108.8C547.901 113.5 548.701 115.1 549.801 113.2C550.574 111.494 551.048 109.667 551.201 107.8L548.301 108.8Z" fill="black"/>
<path d="M536.301 78.1001C527.701 79.2001 522.901 80.7001 518.601 82.7001" stroke="black" stroke-width="2" stroke-linecap="round" stroke-linejoin="round"/>
<path d="M553.901 84.1001L557.601 87.8001" stroke="black" stroke-width="2" stroke-linecap="round" stroke-linejoin="round"/>
<path d="M532.001 119.6C532.001 119.6 527.501 122.9 524.601 125.3" stroke="black" stroke-width="2" stroke-linecap="round" stroke-linejoin="round"/>
<path d="M492.501 93.8L491.701 105.6H486.401C486.711 101.727 487.313 97.8828 488.201 94.1C488.399 93.4543 488.703 92.8461 489.101 92.3C490.431 90.6348 491.978 89.1551 493.701 87.9001L502.901 81.0001C505.505 79.0803 507.487 76.4374 508.601 73.4001C509.901 70.0001 511.501 65.7 512.201 64.8" stroke="#F551A0" stroke-width="2" stroke-linecap="round" stroke-linejoin="round"/>
<path d="M548.201 77.5001C544.001 88.1001 539.401 106.1 542.901 114.7C543.252 115.51 543.688 116.281 544.201 117L546.201 116.8C545.444 116.015 544.834 115.101 544.401 114.1C541.201 106.4 545.201 89.8001 549.401 78.8001L548.201 77.5001Z" fill="#F551A0"/>
<path d="M455.601 101.4C456.001 101.872 456.473 102.277 457.001 102.6C458.001 90.9001 462.801 81.0001 470.201 75.2001L468.201 74.9001C461.301 80.8001 456.701 90.3001 455.601 101.4Z" fill="#F551A0"/>
<path d="M535.901 118.9L524.801 120.2" stroke="black" stroke-width="2" stroke-linecap="round" stroke-linejoin="round"/>
<path d="M521.001 161.3C517.001 164 508.501 168.1 503.101 169.3C501.752 169.577 500.378 169.711 499.001 169.7C496.835 169.781 494.683 169.331 492.731 168.39C490.779 167.448 489.087 166.045 487.801 164.3L482.601 157C478.101 150.6 472.401 142.7 468.301 137C468.201 136.8 468.201 136.7 468.101 136.6C461.901 127.9 458.601 124.1 454.001 123.4C449.401 122.7 436.101 121.5 412.801 119.7C407.001 119.3 406.101 119.4 405.001 122C404.969 122.098 404.916 122.188 404.846 122.263C404.776 122.338 404.69 122.397 404.595 122.435C404.499 122.473 404.397 122.49 404.294 122.484C404.191 122.478 404.091 122.449 404.001 122.4C403.817 122.314 403.668 122.169 403.577 121.987C403.486 121.806 403.459 121.599 403.501 121.4C405.101 117.5 407.501 117.7 412.901 118.1C426.501 119.2 449.801 121 454.301 121.8C458.801 122.6 463.701 127.7 469.401 135.7C469.401 135.8 469.501 135.9 469.601 136C473.701 141.7 479.301 149.7 483.901 156L489.101 163.4C491.901 167.3 497.001 168.9 502.701 167.7C508.401 166.5 517.701 161.7 520.801 159.5C520.917 160.094 520.984 160.696 521.001 161.3Z" fill="#5865F2"/>
<path d="M397.401 113.9C394.501 116.6 396.001 121.9 398.001 129.2C400.001 136.5 402.501 143.1 403.801 142.9C405.101 142.7 405.801 140.1 406.101 136.3C406.401 132.5 406.301 125.7 404.801 120.6C403.301 115.5 399.601 111.8 397.401 113.9Z" fill="black"/>
<path d="M406.301 133.1L398.901 132.2C395.301 131.7 391.701 131.4 388.101 131.2C387.401 135.5 385.901 141 383.801 143.2C381.701 145.4 378.001 145.3 377.601 140.3C377.201 135.3 377.501 128.2 374.201 113.4C373.001 107.9 370.801 104.6 370.001 100.4C369.201 96.2001 371.601 95.5001 373.801 95.9001C373.301 93.1001 373.501 89.5001 377.001 89.0001C380.501 88.5001 381.901 91.5001 381.901 95.4001C382.42 94.6815 383.168 94.1612 384.023 93.9249C384.877 93.6886 385.786 93.7504 386.601 94.1001C389.001 95.0001 389.501 98.0001 389.201 102.8C388.901 107.6 388.801 112.7 390.801 114.4C392.801 116.1 393.301 115.5 396.101 115.9L402.901 116.5C403.712 117.777 404.351 119.156 404.801 120.6C405.835 124.685 406.339 128.886 406.301 133.1Z" fill="#FF78B9"/>
<path d="M406.301 133.1C406.339 128.886 405.835 124.685 404.801 120.6C404.351 119.156 403.712 117.777 402.901 116.5H402.001C404.501 119.7 406.001 128.1 402.001 132.6C402.564 133.077 403.207 133.449 403.901 133.7C404.746 133.781 405.593 133.57 406.301 133.1Z" fill="black"/>
<path d="M386.701 100C387.101 95.3001 383.801 93.3001 381.901 95.4001C381.901 91.5001 380.601 88.5001 377.001 89.0001C373.401 89.5001 373.301 93.1001 373.801 95.9001C371.601 95.5001 369.201 96.3001 370.001 100.4C370.801 104.5 373.001 107.9 374.201 113.4C377.501 128.2 377.101 134.4 377.601 140.3C377.608 141.489 377.993 142.645 378.701 143.6C381.001 146 382.001 143.1 381.901 138.7C381.846 131.814 382.247 124.933 383.101 118.1C384.101 110.1 386.401 104.7 386.701 100Z" fill="#DE3A93"/>
<path d="M377.401 89.0001C380.501 88.9001 380.601 92.8001 380.501 97.1001L381.901 95.4001C381.901 91.7001 380.701 88.7001 377.401 89.0001Z" fill="#FF78B9"/>
<path d="M457.701 138.2C456.129 142.074 454.257 145.819 452.101 149.4C456.701 147.4 458.601 146.4 458.601 146.4" stroke="black" stroke-width="2" stroke-linecap="round" stroke-linejoin="round"/>
<path d="M487.401 140.2L498.001 151C506.601 152.1 508.601 153.9 510.901 156.8" stroke="black" stroke-width="2" stroke-linecap="round" stroke-linejoin="round"/>
<path d="M498.001 151L507.701 151.3" stroke="black" stroke-width="2" stroke-linecap="round" stroke-linejoin="round"/>
<path d="M471.601 252.1C470.301 255.4 468.101 257.6 466.701 257.1C465.301 256.6 465.301 255 466.701 251.9C467.304 250.642 467.806 249.338 468.201 248C469.001 245.1 470.501 244.6 471.601 245.1C472.701 245.6 473.001 248.7 471.601 252.1Z" fill="black"/>
<path d="M393.001 207.6C392.901 209.3 392.701 211.2 392.501 213.2L414.901 215.7L391.301 223.1C390.801 226.5 390.301 229.6 389.801 232.5L405.401 234.1C400.101 236 394.301 238 388.101 240.4C387.301 243.933 386.501 246.933 385.701 249.4L393.001 249.6L384.801 251.9C384.2 253.881 383.465 255.819 382.601 257.7C382.499 257.957 382.432 258.226 382.401 258.5C391.301 255.7 400.301 253.4 409.001 251.5C417.883 253.103 426.639 255.342 435.201 258.2C437.365 257.29 439.309 255.926 440.901 254.2C437.501 253 432.501 251.4 426.401 249.7L422.901 248.8C431.201 247.4 438.901 246.2 445.901 245.3C447.001 242.5 448.201 239.2 449.401 235.6C442.901 234.1 436.201 232.9 429.701 231.8C439.101 228.9 446.501 226.8 452.701 225.3C453.701 221.9 454.701 218.3 455.701 214.5L442.201 213.1L457.101 208.5L458.701 202.2L428.201 211.5L393.001 207.6ZM443.301 240C433.101 241.4 421.201 243.2 408.801 245.9C404.134 245.1 399.234 244.5 394.101 244.1C403.001 240.8 410.801 238 417.801 235.7C425.901 236.8 434.701 238.2 443.301 240ZM451.901 219.7C443.401 221.8 432.401 224.9 417.301 230C409.201 228.9 401.901 228.1 396.001 227.5L428.801 217.2L451.901 219.7Z" fill="#3F4EEB"/>
<path d="M393.401 199.7C393.301 201.6 393.301 203.7 393.101 206.1C418.701 205.3 448.001 202.2 459.001 200.9C459.601 198.3 460.201 196.1 460.801 194.2C452.901 195.2 421.001 198.9 393.401 199.7Z" fill="#3F4EEB"/>
<path d="M436.701 252.8L440.901 254.2C439.309 255.926 437.365 257.29 435.201 258.2L431.201 256.9C433.301 255.934 435.175 254.537 436.701 252.8Z" fill="black"/>
<path d="M446.101 234.9L449.401 235.6C448.201 239.2 447.001 242.5 445.901 245.3L441.501 245.9C443.368 242.382 444.908 238.7 446.101 234.9Z" fill="black"/>
<path d="M451.801 214.1L455.701 214.5C454.701 218.3 453.701 221.9 452.701 225.3L448.701 226.3C449.301 224.3 449.801 222.2 450.301 220.1C450.401 219.9 450.401 219.7 450.501 219.5C450.901 217.7 451.401 215.9 451.801 214.1Z" fill="black"/>
<path d="M454.401 203.5L458.701 202.2L457.101 208.5L452.801 209.8C453.301 207.7 453.901 205.6 454.401 203.5Z" fill="black"/>
<path d="M460.801 194.2C460.201 196.1 459.601 198.3 459.001 200.9L454.901 201.3L456.701 194.7L460.801 194.2Z" fill="black"/>
<path d="M384.801 251.9L389.801 250.5C389.101 252.7 388.401 254.8 387.601 256.9L382.401 258.5C382.432 258.226 382.499 257.957 382.601 257.7C383.465 255.819 384.2 253.881 384.801 251.9Z" fill="black"/>
<path d="M388.101 240.4L392.601 238.7C391.901 242.5 391.101 246 390.101 249.5H385.701C386.501 246.967 387.301 243.933 388.101 240.4Z" fill="black"/>
<path d="M391.301 223.1L395.001 221.9C394.601 225.8 394.101 229.4 393.601 232.9L389.801 232.5C390.301 229.6 390.801 226.5 391.301 223.1Z" fill="black"/>
<path d="M393.001 207.6L396.401 208L395.801 213.5L392.501 213.2C392.701 211.2 392.901 209.3 393.001 207.6Z" fill="black"/>
<path d="M397.201 199.6L396.601 206H393.101C393.301 203.6 393.301 201.5 393.401 199.6H397.201Z" fill="black"/>
<path d="M494.601 225L494.801 233.5C494.807 233.941 494.93 234.372 495.156 234.75C495.383 235.128 495.706 235.44 496.091 235.653C496.477 235.866 496.913 235.974 497.353 235.964C497.794 235.955 498.224 235.829 498.601 235.6C499.052 235.305 499.4 234.877 499.597 234.375C499.794 233.874 499.83 233.323 499.701 232.8L496.801 222.8L494.601 225Z" fill="white"/>
<path d="M480.001 199.4C488.001 201.9 489.601 210.4 491.301 224.8C491.335 225.154 491.464 225.493 491.673 225.781C491.882 226.07 492.164 226.297 492.49 226.439C492.816 226.582 493.174 226.635 493.528 226.593C493.881 226.551 494.217 226.415 494.501 226.2L497.301 224.1C498.034 223.576 498.609 222.86 498.962 222.031C499.315 221.202 499.432 220.292 499.301 219.4C499.001 217.6 498.501 214.8 498.001 211C496.801 203.6 491.901 194.6 482.501 193.5C481.991 193.449 481.478 193.556 481.03 193.806C480.583 194.057 480.224 194.439 480.001 194.9C479.523 196.039 479.285 197.265 479.301 198.5C479.312 198.704 479.385 198.899 479.51 199.06C479.635 199.22 479.806 199.339 480.001 199.4Z" fill="#3F4EEB"/>
</svg>
