<svg width="859" height="439" viewBox="0 0 859 439" fill="none" xmlns="http://www.w3.org/2000/svg">
<path d="M363.297 438.875H22.5651C8.47705 426.279 -0.12543 411.687 1.24598 398.218C4.11347 369.159 49.8686 364.919 94.2524 385.871L102.98 390.236C104.451 384.891 106.811 379.831 109.961 375.27C132.153 342.719 182.271 339.601 214.686 363.422C218.26 366.035 221.597 368.957 224.66 372.152C229.019 366.125 233.991 360.565 239.496 355.565C269.543 328.377 305.199 322.515 318.789 339.227C330.757 353.944 321.532 382.254 298.841 404.578C298.841 404.578 365.915 406.2 363.297 438.875Z" fill="#404EED"/>
<path d="M784.695 438.252C757.142 381.381 741.682 313.286 741.682 313.286L740.436 306.676L684.956 313.286V438.252H784.695Z" fill="#2835BD"/>
<path d="M772.726 438.252C748.539 388.365 735.074 328.626 735.074 328.626L731.833 311.914L685.33 328.626V438.252H772.726Z" fill="black"/>
<path d="M781.453 271.881H761.256V438.327H781.453V271.881Z" fill="#2835BD"/>
<path d="M781.453 293.457C778.429 294.835 775.074 295.32 771.783 294.856C768.492 294.392 765.403 292.998 762.877 290.837L761.256 289.466V281.983L781.453 278.116V293.457Z" fill="black"/>
<path d="M750.534 438.252C764.373 434.884 783.199 416.551 783.199 416.551C783.199 416.551 789.806 430.769 793.671 438.252H807.635C809.142 438.26 810.634 437.95 812.014 437.342C813.395 436.735 814.63 435.842 815.642 434.725C816.654 433.606 817.419 432.288 817.887 430.854C818.354 429.421 818.515 427.904 818.357 426.404C817.733 420.293 814.866 413.433 810.502 403.456C803.146 386.869 800.778 378.139 786.44 378.139H773.474L743.552 364.919C724.353 375.021 711.137 380.882 699.792 387.617C683.086 397.844 669.87 418.048 682.836 438.252H750.534Z" fill="#FFC619"/>
<path d="M539.836 328.626V438.252H691.688C715.875 388.365 729.34 328.626 729.34 328.626L732.955 313.286L539.836 328.626Z" fill="#2835BD"/>
<path d="M694.68 331.994L539.836 346.461V438.252H655.658C666.878 412.685 694.68 331.994 694.68 331.994Z" fill="black"/>
<path d="M674.109 429.896C686.882 410.138 697.024 388.798 704.28 366.415" stroke="black" stroke-width="2" stroke-linecap="round" stroke-linejoin="round"/>
<path d="M656.032 414.68C649.617 414.68 643.465 417.23 638.929 421.767C634.393 426.304 631.845 432.459 631.845 438.875H680.218C680.218 432.459 677.67 426.304 673.134 421.767C668.599 417.23 662.446 414.68 656.032 414.68Z" fill="#404EED"/>
<path d="M690.441 438.252C714.628 388.365 728.217 328.626 728.217 328.626L690.441 438.252Z" fill="#2835BD"/>
<path d="M737.194 438.127C737.069 437.878 728.467 416.177 723.979 402.209L723.729 401.336C720.737 391.857 718.244 384.25 718.618 377.515L716.498 378.638C716.498 385.372 718.867 392.855 721.859 401.959L722.109 402.832C726.223 415.553 733.578 434.635 735.075 438.252H737.194V438.127Z" fill="black"/>
<path d="M815.115 435.259C815.884 434.507 816.465 433.584 816.812 432.566C817.157 431.547 817.261 430.462 817.11 429.397C816.237 420.542 811.624 409.941 806.762 398.966L801.775 387.243L799.905 387.991C801.526 391.982 803.271 395.848 804.892 399.715C810.751 413.059 816.362 425.905 815.115 435.259Z" fill="white"/>
<path d="M773.474 402.708C771.105 412.436 767.739 424.533 763.376 438.252H737.194C737.194 438.252 728.716 416.426 724.103 402.334C719.49 388.241 716.124 378.139 720.737 368.785C725.35 359.431 732.581 358.683 743.553 364.919L741.932 382.628L750.285 406.324L754.15 393.728C762.378 388.365 772.726 391.359 773.474 402.708Z" fill="#FFC619"/>
<path d="M739.687 430.395L737.568 424.284C732.955 410.69 728.966 399.091 726.223 388.49C723.979 379.76 722.109 369.409 723.231 364.794C722.314 365.912 721.52 367.124 720.862 368.411C720.862 375.145 723.106 384.499 724.228 388.989C727.096 399.715 731.085 411.313 735.698 424.907L737.817 431.143C738.731 433.721 739.604 436.09 740.436 438.252H742.68C741.682 436.007 740.81 433.513 739.687 430.395Z" fill="white"/>
<path d="M758.638 438.252C761.505 428.649 765.62 414.556 770.981 396.347C771.018 396.216 771.028 396.079 771.009 395.944C770.992 395.808 770.947 395.679 770.876 395.561C770.806 395.445 770.713 395.343 770.602 395.265C770.492 395.185 770.366 395.129 770.233 395.1C770.112 395.04 769.978 395.009 769.844 395.009C769.708 395.009 769.574 395.04 769.453 395.101C769.332 395.161 769.228 395.25 769.147 395.357C769.066 395.465 769.011 395.591 768.986 395.724C763.5 414.306 759.386 428.649 756.518 438.252H758.638Z" fill="white"/>
<path d="M768.736 326.007C753.028 323.762 747.043 324.885 741.184 338.105C735.324 351.325 738.316 362.549 748.041 376.767C757.765 390.984 781.702 388.365 790.804 384.998C799.905 381.631 807.884 372.526 812.372 359.681C816.86 346.835 815.489 332.742 808.757 325.01C802.024 317.277 790.679 310.917 780.456 314.159C770.233 317.402 768.736 326.007 768.736 326.007Z" fill="#DE3A93"/>
<path d="M776.342 344.59L771.604 343.343" stroke="black" stroke-width="2" stroke-linecap="round" stroke-linejoin="round"/>
<path d="M776.591 346.586L771.729 347.209" stroke="black" stroke-width="2" stroke-linecap="round" stroke-linejoin="round"/>
<path d="M811.001 344.216L814.741 341.722" stroke="black" stroke-width="2" stroke-linecap="round" stroke-linejoin="round"/>
<path d="M810.751 346.336L814.616 345.713" stroke="black" stroke-width="2" stroke-linecap="round" stroke-linejoin="round"/>
<path d="M763.625 313.286C761.007 313.286 759.012 315.032 758.887 316.28C758.762 317.527 763.5 321.518 769.609 329.125L771.23 328.502C765.495 313.785 766.243 313.162 763.625 313.286Z" fill="black"/>
<path d="M775.718 324.885C770.981 327.878 765.495 331.994 765.495 331.994" stroke="black" stroke-width="2" stroke-linecap="round" stroke-linejoin="round"/>
<path d="M773.474 402.708C774.97 396.347 776.092 390.984 776.716 386.869C778.461 376.143 775.22 374.397 770.482 373.025C765.744 371.653 762.378 369.034 760.134 360.928C757.89 352.821 756.518 352.946 753.776 354.318C750.783 355.938 748.219 358.246 746.295 361.053C744.799 363.672 745.049 366.665 747.916 374.023C749.814 378.625 752.862 382.662 756.768 385.746L754.15 393.728C763.75 393.354 769.485 394.601 773.474 402.708Z" fill="#FF78B9"/>
<path d="M789.058 397.719C787.687 391.608 785.941 384.998 789.058 383.252C792.175 381.506 801.775 377.016 807.011 365.667C807.121 365.385 807.286 365.127 807.497 364.91C807.708 364.693 807.961 364.521 808.242 364.405C808.521 364.288 808.821 364.229 809.124 364.232C809.426 364.235 809.725 364.299 810.003 364.42H810.253C810.48 364.502 810.688 364.629 810.864 364.797C811.039 364.962 811.178 365.163 811.271 365.385C811.365 365.608 811.412 365.848 811.408 366.09C811.405 366.332 811.351 366.57 811.25 366.789C808.699 372.215 805.654 377.392 802.149 382.254C802.876 385.179 803.792 388.054 804.892 390.86C799.157 393.728 789.058 397.719 789.058 397.719Z" fill="#FF78B9"/>
<path d="M758.388 377.764C758.573 377.559 758.674 377.293 758.674 377.016C758.674 376.741 758.573 376.474 758.388 376.268C756.525 374.314 754.855 372.183 753.401 369.907C751.033 365.792 748.789 358.434 750.409 356.563L748.664 358.184C748.387 358.483 748.176 358.839 748.048 359.225C747.918 359.613 747.873 360.024 747.916 360.429C748.575 364.104 749.84 367.644 751.656 370.905C753.163 373.365 754.919 375.662 756.892 377.764L757.64 378.014L758.388 377.764Z" fill="black"/>
<path d="M757.765 385.996C761.362 385.552 764.989 385.386 768.612 385.497" stroke="black" stroke-width="2" stroke-linecap="round" stroke-linejoin="round"/>
<path d="M745.921 419.919L753.776 394.975" stroke="black" stroke-width="2" stroke-linecap="round" stroke-linejoin="round"/>
<path d="M750.285 406.324L742.68 384.499" stroke="black" stroke-width="2" stroke-linecap="round" stroke-linejoin="round"/>
<path d="M789.183 398.717C791.427 410.814 796.289 427.776 796.289 427.776" stroke="black" stroke-width="2" stroke-linecap="round" stroke-linejoin="round"/>
<path d="M688.073 406.574C683.742 406.574 679.587 408.295 676.524 411.359C673.461 414.423 671.74 418.579 671.74 422.912V438.875H704.28V422.912C704.28 418.6 702.577 414.463 699.541 411.403C696.504 408.342 692.383 406.608 688.073 406.574Z" fill="#404EED"/>
<path d="M704.28 422.912C702.175 422.895 700.085 423.296 698.135 424.091C696.184 424.886 694.411 426.059 692.915 427.544C691.42 429.028 690.233 430.792 689.424 432.738C688.614 434.682 688.197 436.769 688.197 438.875H720.239C720.239 434.641 718.557 430.582 715.564 427.587C712.572 424.594 708.513 422.912 704.28 422.912Z" fill="#404EED"/>
<path d="M754.274 283.729L778.835 279.862" stroke="black" stroke-width="8" stroke-linecap="round" stroke-linejoin="round"/>
<path d="M805.64 329.375L806.513 330.747" stroke="#FFA8D2" stroke-width="3" stroke-linecap="round" stroke-linejoin="round"/>
<path d="M793.297 320.27C796.525 321.238 799.503 322.898 802.024 325.134" stroke="#FFA8D2" stroke-width="3" stroke-linecap="round" stroke-linejoin="round"/>
<path d="M778.212 279.987C799.032 276.495 832.445 268.763 849.774 264.148" stroke="#2835BD" stroke-width="8" stroke-linecap="round" stroke-linejoin="round"/>
<path d="M843.541 267.516L850.148 298.196" stroke="black" stroke-width="2" stroke-linecap="round" stroke-linejoin="round"/>
<path d="M856.382 297.198V293.207H830.699V297.323C830.647 297.893 830.477 298.444 830.201 298.944C828.914 300.817 828.219 303.032 828.206 305.305V321.642C828.208 324.404 829.206 327.07 831.015 329.155C832.824 331.239 835.323 332.601 838.055 332.991C841.737 333.49 845.469 333.49 849.151 332.991C851.849 332.571 854.304 331.193 856.066 329.108C857.831 327.024 858.783 324.374 858.751 321.642V305.305C858.782 303.045 858.13 300.827 856.881 298.944C856.53 298.431 856.354 297.819 856.382 297.198Z" fill="#8CD9FF"/>
<path d="M854.013 298.944V293.831H832.943V298.944C832.949 299.949 832.691 300.938 832.195 301.812C831.2 303.284 830.679 305.025 830.699 306.801V320.769C830.702 323.089 831.532 325.33 833.04 327.091C834.549 328.852 836.637 330.016 838.928 330.372C841.909 330.747 844.923 330.747 847.904 330.372C850.228 330.068 852.361 328.923 853.9 327.155C855.438 325.385 856.277 323.114 856.257 320.769V306.801C856.246 305.046 855.773 303.327 854.886 301.812C854.356 300.946 854.055 299.959 854.013 298.944Z" fill="#5865F2"/>
<path d="M830.699 295.203C830.699 296.949 836.434 298.32 843.541 298.32C850.647 298.32 856.382 296.949 856.382 295.203L843.541 290.089L830.699 295.203Z" fill="#8CD9FF"/>
<path d="M829.951 294.205C829.841 294.392 829.77 294.6 829.742 294.816C829.714 295.032 829.729 295.25 829.788 295.459C829.845 295.669 829.945 295.865 830.081 296.034C830.215 296.205 830.384 296.346 830.575 296.45C832.694 297.697 837.681 298.57 843.54 298.57C849.4 298.57 854.387 297.697 856.507 296.45C856.868 296.218 857.132 295.861 857.247 295.447C857.362 295.033 857.321 294.59 857.13 294.205L843.54 267.516L829.951 294.205Z" stroke="black" stroke-width="2" stroke-linecap="round" stroke-linejoin="round"/>
<path d="M842.294 321.767L838.429 320.894C838.056 320.759 837.746 320.494 837.556 320.146C837.379 319.798 837.345 319.394 837.461 319.021C837.579 318.648 837.835 318.336 838.179 318.15C838.366 318.041 838.575 317.969 838.79 317.941C839.005 317.913 839.224 317.928 839.434 317.987C839.643 318.044 839.839 318.144 840.008 318.28C840.178 318.415 840.32 318.583 840.424 318.774L842.294 321.767Z" fill="white"/>
<path d="M842.294 321.767L842.044 317.901C842.037 317.718 842.067 317.535 842.13 317.365C842.195 317.192 842.292 317.037 842.418 316.903C842.524 316.741 842.668 316.605 842.835 316.508C843.003 316.409 843.191 316.353 843.385 316.341C843.578 316.328 843.772 316.362 843.951 316.438C844.129 316.514 844.287 316.63 844.413 316.778C844.739 317.047 844.947 317.431 844.993 317.851C845.039 318.27 844.921 318.69 844.663 319.023L842.294 321.767Z" fill="white"/>
<path d="M843.042 325.384C840.922 326.007 838.928 325.384 838.429 324.012C837.93 322.64 838.678 321.892 840.673 321.393C841.543 321.168 842.381 320.833 843.166 320.395C844.787 319.522 845.66 320.52 846.034 321.642C846.408 322.765 845.161 324.636 843.042 325.384Z" fill="#121B80"/>
<path d="M839.222 321.615L837.726 321.589C836.693 321.571 835.841 322.393 835.823 323.427L835.821 323.539C835.803 324.572 836.626 325.424 837.658 325.442L839.154 325.469C840.187 325.486 841.038 324.663 841.057 323.63L841.058 323.518C841.077 322.485 840.254 321.634 839.222 321.615Z" fill="#FFE75C"/>
<path d="M846.283 307.051L849.774 305.18C850.05 304.944 850.263 304.644 850.397 304.307C850.455 304.118 850.475 303.92 850.456 303.724C850.437 303.529 850.38 303.338 850.287 303.164C850.194 302.991 850.068 302.836 849.916 302.712C849.764 302.587 849.588 302.493 849.4 302.436C848.986 302.321 848.545 302.375 848.171 302.584C847.797 302.795 847.521 303.146 847.405 303.559L846.283 307.051Z" fill="white"/>
<path d="M846.283 307.051L845.66 303.184C845.527 302.81 845.315 302.47 845.037 302.187C844.693 302.003 844.296 301.941 843.912 302.008C843.528 302.076 843.178 302.27 842.917 302.561C842.678 302.944 842.597 303.404 842.689 303.847C842.782 304.288 843.043 304.677 843.416 304.93L846.283 307.051Z" fill="white"/>
<path d="M847.281 306.552C849.026 307.799 849.899 309.794 849.026 310.917C848.153 312.039 847.156 312.164 845.535 310.792C844.853 310.236 844.098 309.774 843.291 309.42C842.983 309.344 842.703 309.186 842.477 308.961C842.253 308.738 842.094 308.456 842.017 308.149C841.94 307.841 841.948 307.518 842.041 307.215C842.134 306.912 842.307 306.639 842.543 306.427C843.291 305.18 845.535 305.305 847.281 306.552Z" fill="#121B80"/>
<path d="M846.414 311.039L847.296 312.249C847.904 313.083 849.074 313.266 849.909 312.658L849.999 312.592C850.834 311.983 851.017 310.812 850.409 309.978L849.527 308.768C848.918 307.934 847.748 307.75 846.914 308.359L846.823 308.425C845.989 309.034 845.806 310.205 846.414 311.039Z" fill="#FFE75C"/>
<path d="M843.541 296.325C850.633 296.325 856.382 294.929 856.382 293.207C856.382 291.485 850.633 290.089 843.541 290.089C836.448 290.089 830.699 291.485 830.699 293.207C830.699 294.929 836.448 296.325 843.541 296.325Z" fill="#8CD9FF"/>
<path d="M856.507 293.207H830.699V294.978H856.507V293.207Z" fill="#8CD9FF"/>
<path d="M848.777 294.205C848.153 294.33 847.655 294.704 847.655 295.327C847.67 295.46 847.712 295.585 847.777 295.701C847.842 295.816 847.929 295.917 848.033 296C848.137 296.081 848.257 296.14 848.384 296.174C848.512 296.209 848.646 296.218 848.777 296.2L850.896 295.826C851.177 295.779 851.435 295.645 851.636 295.445C851.838 295.242 851.971 294.984 852.018 294.704C852.006 294.575 851.965 294.452 851.897 294.341C851.831 294.231 851.741 294.136 851.634 294.064C851.527 293.993 851.405 293.947 851.278 293.927C851.149 293.908 851.02 293.918 850.896 293.955L848.777 294.205Z" fill="white"/>
<path d="M843.541 267.516L836.933 298.196" stroke="black" stroke-width="2" stroke-linecap="round" stroke-linejoin="round"/>
<path d="M844.538 269.636L841.296 262.652" stroke="black" stroke-width="2" stroke-linecap="round" stroke-linejoin="round"/>
<path d="M843.79 270.01L844.164 262.028" stroke="black" stroke-width="2" stroke-linecap="round" stroke-linejoin="round"/>
<path d="M808.757 350.951C812.871 346.211 812.247 343.343 810.876 342.47C809.505 341.597 807.385 343.218 803.645 349.205C799.905 355.191 803.022 357.436 808.757 350.951Z" fill="white"/>
<path d="M789.183 350.951C786.44 345.214 781.703 341.098 777.339 341.722C772.975 342.345 774.721 348.83 780.456 353.195C786.191 357.561 792.175 357.186 789.183 350.951Z" fill="white"/>
<path d="M810.627 345.712C810.869 344.59 810.781 343.42 810.377 342.345C809.255 342.22 807.51 343.468 805.141 346.835C805.39 348.581 806.263 349.828 807.261 349.953C808.258 350.078 810.377 348.332 810.627 345.712Z" fill="black"/>
<path d="M789.307 351.325C789.307 351.2 789.183 351.075 789.183 350.951C787.853 348.061 785.842 345.535 783.323 343.592C782.604 345.018 782.301 346.617 782.45 348.207C782.7 351.574 784.445 354.193 786.44 354.068C787.147 353.974 787.805 353.657 788.321 353.164C788.836 352.672 789.182 352.027 789.307 351.325Z" fill="black"/>
<path d="M791.676 363.796C799.531 361.801 802.648 360.928 803.894 362.674C805.141 364.42 804.019 366.415 802.149 368.411C804.144 372.776 803.52 374.771 799.655 374.771C796.838 374.571 794.106 373.716 791.676 372.277" stroke="black" stroke-width="2" stroke-linecap="round" stroke-linejoin="round"/>
<path d="M800.029 366.291C799.541 367.585 798.869 368.804 798.035 369.907" stroke="black" stroke-width="2" stroke-linecap="round" stroke-linejoin="round"/>
<path d="M266.302 438.252H279.269L288.993 408.569H263.435L266.302 438.252Z" fill="black"/>
<path d="M429.749 438.252H360.306C315.673 438.252 289.99 425.406 270.791 410.814L266.302 438.252H254.957C254.957 306.552 271.913 181.586 271.913 181.586C274.406 167.493 301.211 161.133 334.499 172.732C367.787 184.33 376.638 199.171 375.392 212.641C374.145 226.11 363.548 316.903 359.558 359.431L366.665 367.164C369.116 369.712 370.933 372.8 371.973 376.178C373.013 379.558 373.245 383.134 372.649 386.619L371.901 390.735C399.329 408.445 441.718 399.59 429.749 438.252Z" fill="#29CC7A"/>
<path d="M285.751 205.781C284.629 221.495 284.38 227.981 284.38 230.475C284.371 230.869 284.445 231.261 284.596 231.626C284.745 231.99 284.97 232.321 285.253 232.595C292.609 239.953 301.336 242.323 308.193 243.196C308.589 243.248 308.992 243.217 309.376 243.105C309.76 242.991 310.115 242.801 310.421 242.543C310.726 242.283 310.974 241.964 311.149 241.605C311.323 241.244 311.421 240.853 311.434 240.452L312.806 220.498" stroke="white" stroke-width="2" stroke-miterlimit="10" stroke-linecap="round"/>
<path d="M280.266 352.073C276.135 352.16 272.055 351.173 268.422 349.205" stroke="black" stroke-width="4" stroke-miterlimit="10" stroke-linecap="round"/>
<path d="M269.918 357.81C275.279 358.558 281.887 356.189 281.887 356.189" stroke="black" stroke-width="4" stroke-miterlimit="10" stroke-linecap="round"/>
<path d="M343.849 268.264C342.727 279.488 342.478 291.835 348.088 295.078C351.579 297.198 358.685 296.949 366.54 293.207C369.657 262.153 373.023 235.464 374.644 220.373L337.491 226.484C333.875 258.536 333.252 269.012 343.849 268.264Z" fill="#15AD75"/>
<path d="M369.695 222.844C375.654 210.347 359.677 190.29 334.009 178.043C308.342 165.796 282.705 165.998 276.746 178.495C270.788 190.99 286.765 211.048 312.433 223.295C338.099 235.541 363.737 235.339 369.695 222.844Z" fill="black"/>
<path d="M270.791 410.814C289.99 425.406 315.673 438.252 360.306 438.252H429.749C430.931 434.664 431.603 430.927 431.744 427.152C358.062 427.152 315.299 425.655 255.955 381.257C255.456 398.966 255.082 418.048 254.957 438.252H266.302L270.791 410.814Z" fill="#57F287"/>
<path d="M275.778 348.082C279.019 360.678 287.871 370.282 295.601 369.533C303.33 368.785 303.58 361.551 300.588 349.454C299.84 346.211 299.216 343.093 298.593 339.851C296.349 328.377 290.738 323.388 283.881 324.012C277.024 324.636 272.411 335.611 275.778 348.082Z" fill="white"/>
<path d="M275.778 348.082C279.019 360.678 287.871 370.282 295.601 369.533C303.33 368.785 303.58 361.551 300.588 349.454C299.84 346.211 299.216 343.093 298.593 339.851C296.349 328.377 290.738 323.388 283.881 324.012C277.024 324.636 272.411 335.611 275.778 348.082Z" fill="white"/>
<path d="M296.099 348.207C297.346 353.694 296.473 358.558 294.354 358.932C292.235 359.307 289.616 356.438 288.744 349.579C287.871 342.719 288.37 338.978 290.489 338.978C292.609 338.978 294.977 342.595 296.099 348.207Z" fill="black"/>
<path d="M368.285 389.737C368.47 389.748 368.654 389.712 368.823 389.635C368.991 389.556 369.137 389.438 369.248 389.289C369.359 389.142 369.431 388.969 369.46 388.786C369.487 388.602 369.47 388.415 369.407 388.241C366.914 375.769 359.309 374.023 345.221 377.266C331.133 380.508 325.522 381.755 322.779 382.753C320.037 383.751 321.283 384.374 339.86 387.243C349.254 388.823 358.759 389.657 368.285 389.737Z" fill="#15AD75"/>
<path d="M431.121 420.791C417.282 420.916 394.217 420.667 371.527 419.17C329.387 416.302 290.614 400.588 256.204 372.526V374.771C290.614 402.583 329.263 418.172 371.402 420.916C392.597 422.413 414.04 422.662 428.129 422.662H431.495L431.121 420.791Z" fill="black"/>
<path d="M298.593 339.976C296.349 328.502 290.738 323.513 283.881 324.137C277.024 324.76 275.154 329.874 274.656 337.232C282.374 339.724 290.51 340.657 298.593 339.976Z" fill="#5865F2"/>
<path d="M475.505 239.829L433.988 263.026C434.699 263.683 435.593 264.107 436.552 264.242C437.51 264.375 438.486 264.212 439.349 263.774C441.718 262.776 447.453 257.538 449.697 256.291C451.941 255.044 458.3 252.55 461.416 251.303C465.26 249.78 468.869 247.722 472.138 245.191C474.881 242.947 475.879 242.074 475.505 239.829Z" fill="black"/>
<path d="M373.023 153.65C365.418 148.911 365.044 149.036 360.805 141.428C356.566 133.82 351.205 130.079 344.971 129.206L352.701 185.203C368.909 189.942 378.883 181.711 381.127 173.605C383.371 165.498 380.753 158.389 373.023 153.65Z" fill="#283192"/>
<path d="M365.418 161.008C363.298 151.904 357.688 141.303 351.08 133.321C348.713 130.438 347.034 127.052 346.17 123.421C345.306 119.791 345.279 116.011 346.094 112.369L348.836 99.8976C350.765 91.2415 349.736 82.1889 345.918 74.1859C342.098 66.1827 335.707 59.6911 327.767 55.7481C323.21 53.5039 318.25 52.1896 313.18 51.8819C303.638 51.1828 294.201 54.2302 286.869 60.3772C279.537 66.5243 274.888 75.2874 273.908 84.8069C273.701 86.4195 273.617 88.0456 273.658 89.6709V95.0337L273.908 117.483C274.178 127.568 272.041 137.572 267.674 146.666C265.861 150.274 264.481 154.084 263.56 158.015L324.525 222.867C353.574 218.003 371.776 189.942 365.418 161.008Z" fill="#283192"/>
<path d="M324.65 222.867C353.574 218.003 371.776 189.942 365.418 161.008C363.423 152.403 358.312 142.426 352.203 134.693" stroke="black" stroke-width="2" stroke-miterlimit="10" stroke-linecap="round"/>
<path d="M345.969 162.879C351.704 153.401 353.948 154.648 364.171 157.391C372.4 159.512 381.875 176.348 369.283 184.829C356.691 193.31 331.008 188.196 345.969 162.879Z" fill="#3442D9"/>
<path d="M317.547 134.926C318.697 134.047 318.881 132.36 317.961 131.155C317.041 129.951 315.364 129.688 314.216 130.566C313.067 131.446 312.882 133.133 313.802 134.336C314.722 135.541 316.399 135.804 317.547 134.926Z" fill="black"/>
<path d="M333.251 135.902C334.399 135.024 334.585 133.335 333.665 132.132C332.745 130.928 331.068 130.664 329.918 131.543C328.77 132.421 328.584 134.11 329.504 135.313C330.425 136.517 332.101 136.781 333.251 135.902Z" fill="black"/>
<path d="M331.631 133.945C344.971 144.92 339.486 152.777 350.208 168.99" stroke="white" stroke-width="3.00593" stroke-miterlimit="10" stroke-linecap="round"/>
<path d="M316.546 158.514C324.774 152.777 327.268 151.156 330.385 151.28L338.488 152.029L336.369 184.954L315.798 184.33L316.546 158.514Z" fill="#FFC619"/>
<path d="M356.441 150.158C356.597 149.723 356.648 149.256 356.593 148.797C356.539 148.338 356.378 147.898 356.125 147.511C355.87 147.125 355.531 146.802 355.132 146.569C354.732 146.335 354.284 146.198 353.823 146.167L340.109 144.172C339.114 144.066 338.112 144.305 337.273 144.85C336.433 145.395 335.805 146.212 335.496 147.165L327.766 175.849C327.612 176.286 327.56 176.751 327.614 177.21C327.669 177.669 327.83 178.109 328.083 178.496C328.337 178.883 328.677 179.206 329.077 179.439C329.476 179.672 329.923 179.809 330.385 179.84L344.099 181.836C345.095 181.942 346.096 181.702 346.936 181.157C347.775 180.612 348.402 179.795 348.712 178.843L356.441 150.158Z" fill="black"/>
<path d="M355.818 147.289L357.314 149.036L353.2 149.41L355.818 147.289Z" fill="black"/>
<path d="M362.55 166.246C360.805 163.378 359.184 159.761 354.447 159.013L353.823 164.999L362.55 166.246Z" fill="#FFC619"/>
<path d="M357.813 151.779C357.944 151.344 357.977 150.885 357.911 150.435C357.845 149.985 357.682 149.554 357.433 149.174C357.183 148.794 356.854 148.473 356.468 148.234C356.081 147.994 355.646 147.842 355.195 147.788L341.356 145.793C340.365 145.709 339.372 145.959 338.538 146.5C337.703 147.043 337.071 147.846 336.743 148.786L329.013 177.471C328.882 177.906 328.849 178.365 328.915 178.815C328.981 179.265 329.144 179.696 329.393 180.076C329.643 180.456 329.972 180.778 330.358 181.016C330.746 181.256 331.18 181.408 331.631 181.462L345.47 183.332C346.44 183.492 347.435 183.286 348.263 182.757C349.091 182.227 349.695 181.412 349.958 180.464L357.813 151.779Z" fill="white"/>
<path d="M353.574 163.128L359.184 164.001C360.321 164.127 361.362 164.695 362.085 165.58C362.808 166.467 363.154 167.602 363.049 168.741C363.02 169.333 362.868 169.913 362.603 170.443C362.336 170.972 361.962 171.441 361.504 171.816C361.046 172.193 360.514 172.468 359.942 172.625C359.371 172.784 358.773 172.82 358.187 172.732L354.073 172.108C352.795 171.925 351.613 171.323 350.71 170.399C349.809 169.474 349.238 168.278 349.086 166.995C349.054 166.423 349.155 165.852 349.38 165.326C349.604 164.8 349.947 164.332 350.38 163.958C350.814 163.585 351.327 163.315 351.881 163.172C352.434 163.029 353.014 163.014 353.574 163.128Z" fill="#FFC619"/>
<path d="M351.704 171.484L355.569 172.108C356.216 172.19 356.837 172.411 357.389 172.757C357.941 173.102 358.411 173.565 358.767 174.11C359.123 174.656 359.356 175.273 359.45 175.918C359.543 176.563 359.495 177.22 359.309 177.845C359.043 178.85 358.407 179.718 357.529 180.273C356.65 180.828 355.594 181.03 354.571 180.838L352.202 180.464C350.91 180.286 349.71 179.689 348.788 178.767C347.865 177.844 347.269 176.644 347.091 175.351C347.055 174.766 347.157 174.182 347.388 173.643C347.619 173.106 347.974 172.629 348.422 172.253C348.871 171.877 349.401 171.612 349.972 171.478C350.542 171.345 351.135 171.347 351.704 171.484Z" fill="#FFC619"/>
<path d="M339.61 185.702L326.146 183.831L326.769 178.344L340.234 180.339L339.61 185.702Z" fill="#FFC619"/>
<path d="M342.852 163.877L334.374 162.63C333.97 162.575 333.591 162.404 333.281 162.139C332.972 161.874 332.745 161.525 332.629 161.133L331.881 158.888L331.257 154.274L326.644 170.487L340.358 172.482C341.635 172.653 342.932 172.389 344.04 171.733C345.148 171.077 346.004 170.068 346.467 168.865C346.616 168.295 346.636 167.699 346.527 167.121C346.418 166.542 346.182 165.994 345.837 165.518C345.491 165.04 345.044 164.646 344.529 164.363C344.013 164.079 343.44 163.913 342.852 163.877Z" fill="#FFC619"/>
<path d="M340.109 172.357L326.644 170.487L327.268 179.466L337.616 180.963C338.879 181.151 340.166 180.892 341.259 180.232C342.351 179.572 343.179 178.551 343.6 177.346C343.771 176.785 343.812 176.192 343.721 175.612C343.629 175.033 343.405 174.483 343.07 174.001C342.733 173.521 342.292 173.123 341.779 172.838C341.266 172.553 340.695 172.389 340.109 172.357Z" fill="#FFC619"/>
<path d="M435.609 227.357C435.983 213.888 424.887 211.768 417.282 207.028C409.677 202.289 400.7 192.312 391.35 185.577C381.999 178.843 373.896 178.967 358.062 183.831L376.14 219.001C386.363 224.239 388.607 229.976 394.093 237.709C399.578 245.441 406.934 248.434 414.29 247.062C418.155 253.423 418.903 254.919 424.513 252.924C430.123 250.928 439.349 246.688 441.843 239.33C444.336 231.972 440.721 230.724 435.609 227.357Z" fill="#66BCFF"/>
<path d="M426.258 248.684C421.521 247.561 419.651 244.942 416.659 240.826L414.041 237.334C401.199 234.715 395.963 227.856 393.095 222.867C391.724 220.498 389.23 218.627 386.862 216.881C384.493 215.135 382.124 213.264 380.753 211.019C379.72 209.338 378.804 207.588 378.01 205.781C377.012 203.162 376.14 201.416 374.519 200.917C372.898 200.418 370.155 201.416 367.537 202.539C365.16 203.685 362.646 204.523 360.057 205.033C359.842 205.073 359.622 205.03 359.437 204.914C359.253 204.8 359.118 204.619 359.059 204.409C359.052 204.184 359.123 203.96 359.259 203.78C359.395 203.598 359.588 203.469 359.808 203.412C362.247 203.001 364.604 202.202 366.789 201.042C369.781 199.795 372.275 198.672 374.893 199.421C377.511 200.169 378.384 202.414 379.506 205.158C380.628 207.901 381.002 208.4 381.999 210.146C383.649 212.24 385.629 214.051 387.859 215.509C390.353 217.505 392.971 219.5 394.467 222.119C397.334 227.232 402.321 233.343 414.664 235.838H414.913L415.163 236.087C416.285 237.459 417.157 238.831 418.03 239.953C420.773 243.82 422.518 246.189 426.508 247.187C426.616 247.178 426.724 247.197 426.822 247.242C426.921 247.288 427.005 247.358 427.068 247.446C427.131 247.534 427.17 247.637 427.181 247.744C427.192 247.853 427.175 247.961 427.131 248.06C427.14 248.168 427.121 248.277 427.076 248.374C427.03 248.473 426.96 248.558 426.873 248.621C426.785 248.684 426.681 248.722 426.574 248.733C426.467 248.745 426.358 248.727 426.258 248.684Z" fill="#45AAF7"/>
<path d="M375.392 198.298C373.716 203.652 372.63 209.172 372.15 214.761" stroke="black" stroke-width="2" stroke-miterlimit="10" stroke-linecap="round"/>
<path d="M382.747 263.151C371.402 273.377 361.802 270.509 357.314 270.01C352.826 269.511 353.325 266.268 352.951 263.525C352.577 260.781 352.327 256.665 352.327 256.665C340.982 255.917 339.61 248.185 339.361 241.325C339.112 234.466 337.366 233.468 336.494 228.604C322.814 226.146 309.886 220.571 298.708 212.309C287.529 204.048 278.405 193.321 272.037 180.963L283.881 172.357L310.312 189.568C328.141 182.958 337.99 179.591 347.59 178.967C357.189 178.344 366.665 181.961 369.781 195.305C372.898 208.65 373.272 212.765 376.14 219.126C376.888 220.747 378.135 222.992 379.381 225.362C382.872 232.47 386.488 242.448 379.381 253.298C380.248 256.664 381.374 259.959 382.747 263.151Z" fill="#8CD9FF"/>
<path d="M291.362 206.155C290.988 197.301 294.354 191.065 300.463 190.067L285.003 179.341L273.783 184.205C276.65 192.187 284.006 200.917 291.362 206.155Z" fill="black"/>
<path d="M361.054 265.52L361.304 263.899C359.059 263.525 358.935 261.903 358.311 254.296V253.298L357.813 253.049C352.826 251.801 349.46 248.808 349.21 238.706C349.168 233.908 348.194 229.164 346.343 224.738C345.859 223.699 345.483 222.612 345.221 221.495C344.971 220.498 344.597 219.5 344.348 218.627C342.94 215.106 342.551 211.26 343.226 207.527C343.725 203.661 343.351 201.541 342.104 200.418C340.857 199.296 337.74 199.67 333.127 201.167H332.504C325.148 203.536 310.437 208.4 295.601 209.647L297.471 211.019C311.933 209.647 325.896 205.033 333.003 202.788L333.626 202.539C337.366 201.291 339.984 200.668 341.107 201.541C342.229 202.414 341.979 204.035 341.605 207.153C340.941 211.143 341.371 215.238 342.852 219.001C343.175 219.894 343.425 220.812 343.6 221.745C343.974 222.867 344.348 223.99 344.847 225.112C346.626 229.382 347.557 233.957 347.59 238.582C347.839 247.935 350.457 252.55 356.815 254.42C357.314 262.028 357.563 264.897 361.054 265.52Z" fill="#66BCFF"/>
<path d="M316.795 156.768C313.18 153.65 310.437 153.899 306.073 155.77C301.46 151.53 295.476 150.906 289.242 153.026C283.009 155.147 273.409 158.015 267.799 159.512C267.486 159.629 267.145 159.653 266.819 159.581C266.492 159.509 266.193 159.346 265.956 159.11C265.72 158.873 265.557 158.574 265.486 158.247C265.414 157.92 265.439 157.58 265.554 157.267L269.669 142.301C256.329 152.278 251.965 173.605 256.204 185.203C260.443 196.802 278.895 196.677 284.754 193.434C290.614 190.192 292.609 189.194 299.341 190.441C306.073 191.688 311.31 192.561 320.161 185.827L325.398 184.081C327.392 172.732 325.647 164.5 316.795 156.768Z" fill="#283192"/>
<path d="M316.795 156.768C313.18 153.65 310.437 153.899 306.073 155.77C301.46 151.53 295.476 150.906 289.242 153.026C283.009 155.147 273.409 158.015 267.799 159.512" stroke="black" stroke-width="2" stroke-miterlimit="10" stroke-linecap="round"/>
<path d="M306.073 155.77C309.797 158.655 312.898 162.264 315.191 166.379C317.483 170.494 318.92 175.031 319.413 179.716" stroke="black" stroke-width="2" stroke-miterlimit="10" stroke-linecap="round"/>
<path d="M343.849 152.029C343.905 151.857 343.924 151.674 343.903 151.494C343.882 151.314 343.822 151.141 343.726 150.987C343.631 150.833 343.504 150.7 343.353 150.601C343.202 150.501 343.031 150.435 342.852 150.407H341.605C341.259 150.331 340.896 150.394 340.594 150.579C340.291 150.765 340.073 151.061 339.984 151.405L338.862 155.521C338.805 155.703 338.79 155.895 338.819 156.083C338.847 156.272 338.918 156.45 339.026 156.607C339.134 156.763 339.278 156.893 339.443 156.986C339.609 157.078 339.795 157.132 339.984 157.142H341.231C341.559 157.184 341.891 157.106 342.166 156.923C342.441 156.739 342.64 156.464 342.727 156.144L343.849 152.029Z" fill="#29CC7A"/>
<path d="M323.902 128.083C324.865 126.131 326.288 124.443 328.046 123.162C329.805 121.88 331.848 121.044 334 120.725C334.249 120.725 334.374 120.476 334.249 120.351C332.629 114.365 333.377 110.997 335.496 106.632C335.517 106.601 335.531 106.565 335.536 106.527C335.541 106.489 335.537 106.451 335.526 106.415C335.514 106.378 335.494 106.346 335.466 106.318C335.44 106.291 335.408 106.271 335.372 106.258C328.39 103.265 325.772 98.2763 325.024 94.5348C324.899 94.2854 324.525 94.1606 324.4 94.4101C321.283 100.646 317.045 100.895 313.429 100.396C313.18 100.396 313.055 100.646 313.18 100.771C316.795 107.755 314.177 112.743 310.562 116.235C310.543 116.284 310.533 116.337 310.535 116.389C310.538 116.442 310.552 116.493 310.575 116.541C310.599 116.588 310.631 116.629 310.672 116.663C310.712 116.696 310.76 116.72 310.811 116.734C317.793 117.981 321.533 122.596 323.278 127.959C323.403 128.208 323.777 128.333 323.902 128.083Z" fill="#FFC619"/>
<path d="M340.109 172.357L333.003 171.36" stroke="black" stroke-width="2" stroke-miterlimit="10" stroke-linecap="round"/>
<path d="M353.075 171.983L357.065 172.607" stroke="black" stroke-width="2" stroke-miterlimit="10" stroke-linecap="round"/>
<path d="M324.774 94.2853C327.891 87.3013 327.642 82.4373 326.769 79.6936" stroke="black" stroke-width="2" stroke-miterlimit="10" stroke-linecap="round"/>
<path d="M334.748 106.508C336.693 106.806 338.68 106.682 340.573 106.144C342.467 105.606 344.222 104.666 345.719 103.39" stroke="black" stroke-width="2" stroke-miterlimit="10" stroke-linecap="round"/>
<path d="M323.902 128.083C323.912 129.011 323.786 129.937 323.528 130.827" stroke="black" stroke-width="2" stroke-miterlimit="10" stroke-linecap="round"/>
<path d="M311.185 116.36C306.572 119.603 299.59 119.104 294.728 117.607" stroke="black" stroke-width="2" stroke-miterlimit="10" stroke-linecap="round"/>
<path d="M313.429 100.397C311.684 96.7798 308.442 92.6642 305.45 91.2923" stroke="black" stroke-width="2" stroke-miterlimit="10" stroke-linecap="round"/>
<path d="M334.25 120.351C335.858 121.21 337.578 121.839 339.361 122.222" stroke="black" stroke-width="2" stroke-miterlimit="10" stroke-linecap="round"/>
<path d="M320.909 107.007C323.029 115.238 325.772 114.739 327.018 112.245C328.265 109.75 329.138 106.632 331.133 106.882C333.127 107.131 332.629 110.623 330.26 115.612C327.891 120.601 324.026 121.723 320.411 117.358C316.795 112.993 316.671 108.753 316.546 105.759C316.421 102.766 319.538 102.018 320.909 107.007Z" fill="#C40655"/>
<path d="M315.922 132.947C317.419 150.158 308.691 158.389 305.949 175.475" stroke="white" stroke-width="3.00593" stroke-miterlimit="10" stroke-linecap="round"/>
<path d="M335.496 228.729C333.252 221.371 332.255 207.901 338.364 196.053" stroke="black" stroke-width="2" stroke-miterlimit="10" stroke-linecap="round"/>
<path d="M334.125 210.396C332.718 207.662 332.032 204.614 332.13 201.541" stroke="black" stroke-width="2" stroke-miterlimit="10" stroke-linecap="round"/>
<path d="M272.661 158.14L263.435 161.133" stroke="black" stroke-width="2" stroke-miterlimit="10" stroke-linecap="round"/>
<path d="M364.296 157.017L370.529 158.763" stroke="black" stroke-width="2" stroke-miterlimit="10" stroke-linecap="round"/>
<path d="M475.505 239.704C474.82 240.704 474.026 241.625 473.136 242.448C469.146 246.439 460.045 250.928 455.183 252.799C451.484 253.97 448.081 255.927 445.209 258.536C441.593 261.405 437.105 265.271 433.988 263.026C430.062 259.41 426.474 255.444 423.266 251.178C423.084 250.955 422.966 250.686 422.922 250.401C422.877 250.117 422.911 249.825 423.017 249.557C424.762 244.568 430.373 237.459 438.477 233.718C438.745 233.612 439.036 233.578 439.321 233.623C439.606 233.666 439.874 233.785 440.097 233.967C444.835 237.334 447.702 238.207 451.567 238.083C455.432 237.958 462.913 235.464 469.022 233.718C475.131 231.972 475.255 234.715 475.505 239.704Z" fill="#FFC619"/>
<path d="M426.757 255.543C428.984 258.209 431.4 260.71 433.988 263.026C437.105 265.271 441.593 261.405 445.209 258.536C448.081 255.927 451.484 253.97 455.183 252.799C460.045 250.928 469.146 246.439 473.136 242.448C474.026 241.625 474.82 240.704 475.505 239.704C475.255 234.715 474.133 232.221 469.022 233.718C463.91 235.214 461.042 236.461 457.302 237.334C456.19 237.632 455.182 238.234 454.389 239.069C453.597 239.906 453.051 240.946 452.814 242.074C452.689 243.445 452.44 244.817 452.191 246.439C445.458 245.067 438.975 247.312 437.604 256.166C437.604 256.166 431.869 253.049 426.757 255.543Z" fill="#FFE75C"/>
<path d="M473.136 242.448L475.505 239.829C475.663 239.566 475.749 239.264 475.754 238.956C475.639 238.01 475.386 237.086 475.006 236.212C474.008 238.083 472.263 239.953 468.398 242.822C462.289 247.312 455.432 248.933 451.318 250.305C447.551 251.709 444.114 253.874 441.219 256.665C438.944 259.237 435.946 261.062 432.617 261.903L433.988 263.026C437.105 265.271 441.593 261.405 445.209 258.536C448.081 255.927 451.484 253.97 455.183 252.799C460.045 250.928 469.146 246.439 473.136 242.448Z" fill="white"/>
<path d="M397.085 248.06C390.727 246.314 384.244 249.307 378.509 260.157C376.888 258.91 372.898 257.538 366.914 258.661C360.93 259.783 358.685 262.402 357.688 264.398C357.095 265.55 356.919 266.872 357.189 268.139C357.563 269.761 358.062 271.881 358.81 275.373C359.932 280.736 359.309 285.475 362.301 285.974L404.191 255.792C404.191 255.792 405.313 250.305 397.085 248.06Z" fill="#FFC619"/>
<path d="M397.085 248.06C390.727 246.314 384.244 249.307 378.509 260.157C377.713 261.781 377.005 263.446 376.389 265.146C369.781 264.522 366.665 267.391 365.543 273.751C365.543 273.751 361.179 270.758 358.561 274.25C358.685 274.624 358.685 274.999 358.81 275.373C359.932 280.736 359.309 285.475 362.301 285.974L404.191 255.792C404.191 255.792 405.313 250.305 397.085 248.06Z" fill="#FFE75C"/>
<path d="M404.191 254.046L401.074 251.178C395.714 250.305 391.225 250.18 386.488 255.543C381.75 260.906 378.633 266.767 373.646 270.259C366.54 275.497 360.556 277.618 359.683 281.484C358.81 285.35 360.556 285.724 362.301 285.974L404.191 255.792C404.345 255.221 404.345 254.619 404.191 254.046Z" fill="white"/>
<path d="M398.83 249.307L401.822 250.18C402.083 250.223 402.33 250.322 402.546 250.473C402.763 250.625 402.941 250.824 403.069 251.053C404.225 253.006 404.706 255.285 404.441 257.538L393.469 255.543C397.085 253.797 398.332 252.176 397.958 250.055C397.92 249.938 397.918 249.813 397.951 249.695C397.985 249.576 398.052 249.472 398.146 249.392C398.239 249.311 398.354 249.261 398.475 249.246C398.597 249.231 398.721 249.252 398.83 249.307Z" fill="white"/>
<path d="M362.55 286.098C373.272 288.218 378.01 284.851 382.623 280.112C384.537 277.994 386.764 276.186 389.231 274.749C395.589 271.132 400.576 267.266 403.942 261.155C407.308 255.044 396.96 251.053 390.228 256.665C383.496 262.278 383.122 268.887 369.781 277.119C360.68 282.856 359.434 285.475 362.55 286.098Z" fill="black"/>
<path d="M364.075 266.634C364.137 265.397 363.575 264.362 362.818 264.323C362.063 264.284 361.398 265.257 361.336 266.495C361.272 267.734 361.836 268.769 362.591 268.806C363.348 268.845 364.013 267.872 364.075 266.634Z" fill="white"/>
<path d="M475.878 238.207C475.659 236.943 475.239 235.722 474.632 234.591C474.507 234.466 474.382 234.341 474.258 234.466H474.133C473.884 234.466 473.884 234.591 473.884 234.715C474.507 237.334 474.756 240.328 473.385 242.074C476.252 239.829 476.003 238.582 475.878 238.207Z" fill="white"/>
<path d="M431.4 251.468C432.543 251.213 433.153 249.589 432.761 247.84C432.371 246.093 431.128 244.883 429.986 245.139C428.844 245.395 428.235 247.019 428.625 248.766C429.015 250.513 430.258 251.723 431.4 251.468Z" fill="white"/>
<path d="M524.874 438.252C577.611 438.252 620.872 416.302 677.724 366.166C734.575 316.03 754.522 299.568 770.605 283.978C786.688 268.389 785.566 258.287 777.213 238.332C768.86 218.378 763.374 221.246 763.374 221.246C762.377 205.033 746.543 178.219 729.089 156.643C711.635 135.067 701.162 138.559 681.963 138.559C662.763 138.559 656.404 143.797 647.802 166.745C639.199 189.693 617.756 209.149 577.237 216.257C536.718 223.366 514.526 222.992 513.404 243.321C512.282 263.649 513.404 298.695 495.451 326.382C473.133 337.172 449.671 345.413 425.509 350.951C411.296 354.193 408.304 363.547 406.933 375.769C405.561 387.991 410.548 394.601 412.917 398.467C408.055 403.082 409.052 405.077 411.421 415.928C412.419 420.293 413.541 424.658 414.538 428.524C415.351 431.334 417.055 433.803 419.394 435.558C421.733 437.313 424.58 438.258 427.504 438.252H524.874Z" fill="#66BCFF"/>
<path d="M406.933 375.769C405.561 387.991 410.548 394.601 412.917 398.467L510.537 409.692L605.039 395.848C605.039 395.848 667.376 345.588 658.898 328.876C650.42 312.164 632.592 327.878 608.779 344.091C584.967 360.304 560.281 361.801 531.98 357.685C503.679 353.57 469.394 341.472 425.509 350.951C411.296 354.193 408.304 363.547 406.933 375.769Z" fill="#45AAF7"/>
<path d="M668.996 320.52C669.121 298.944 668.373 293.831 675.604 294.828C682.835 295.826 694.679 298.196 694.679 298.196L681.838 318.524L668.996 320.52Z" fill="#A3E1FF"/>
<path d="M706.897 286.971C706.897 276.495 706.024 269.636 708.892 268.139C711.759 266.643 715.126 268.513 721.11 273.876C727.094 279.239 706.897 286.971 706.897 286.971Z" fill="#A3E1FF"/>
<path d="M419.151 395.848C417.53 383.252 417.904 373.275 421.27 370.78C424.636 368.286 427.878 374.023 430.247 379.012C433.266 385.342 437.034 391.287 441.467 396.721L419.151 395.848Z" fill="#A3E1FF"/>
<path d="M527.367 398.592C531.482 381.755 534.972 377.64 538.463 377.39C541.954 377.141 543.7 385.123 548.687 396.472L540.458 400.338L527.367 398.592Z" fill="#A3E1FF"/>
<path d="M751.78 244.568C698.793 295.826 667.126 324.012 622.743 357.062C578.359 390.111 558.536 398.717 521.258 398.717C483.981 398.717 460.044 377.764 412.917 398.467C408.055 403.082 409.052 405.077 411.421 415.928C412.418 420.293 413.541 424.658 414.538 428.524C415.351 431.334 417.055 433.803 419.394 435.558C421.733 437.313 424.58 438.258 427.504 438.252H524.874C577.611 438.252 620.872 416.302 677.724 366.166C734.575 316.03 754.522 299.568 770.605 283.978C786.688 268.389 785.566 258.287 777.213 238.332C768.86 218.378 763.374 221.246 763.374 221.246C763.374 226.858 763.748 232.845 751.78 244.568Z" fill="white"/>
<path d="M777.836 239.704C777.712 246.938 773.223 255.169 761.005 266.393C737.068 288.218 687.573 332.867 653.537 361.801C616.259 393.853 581.6 420.293 535.471 420.293C519.388 420.293 501.809 416.925 484.729 413.683C454.683 407.946 426.133 402.583 411.67 417.05C411.795 417.798 412.044 418.671 412.169 419.42C425.634 404.578 454.184 409.941 484.355 415.678C501.56 418.921 519.264 422.288 535.471 422.288C582.224 422.288 618.628 394.352 654.784 363.422C688.819 334.363 738.439 289.59 762.252 267.89C771.229 259.659 777.712 252.051 779.332 243.695L777.836 239.704Z" fill="#FFE75C"/>
<path d="M638.327 397.844L620.997 358.434C614.348 363.339 608.239 367.704 602.67 371.529L601.174 373.275C607.657 370.531 614.14 374.148 614.639 385.247C614.763 391.234 614.763 403.331 614.763 413.059C622.888 408.418 630.754 403.34 638.327 397.844Z" fill="black"/>
<path d="M434.735 428.274C424.761 428.399 419.899 432.39 423.888 436.256C425.341 437.606 427.268 438.323 429.249 438.252H514.9C472.262 438.252 467.898 427.776 434.735 428.274Z" fill="black"/>
<path d="M728.466 208.151C715.624 224.613 711.136 231.099 716.497 248.684C718.741 256.291 721.609 264.398 723.977 271.132L751.78 244.568C763.748 232.845 763.374 226.858 763.374 221.246C762.502 207.403 750.907 185.827 736.569 166.371C743.801 176.847 741.307 191.688 728.466 208.151Z" fill="#45AAF7"/>
<path d="M711.385 187.199C718.741 159.137 717.993 140.43 699.915 138.559C694.555 138.061 688.82 138.559 681.963 138.559C662.638 138.559 656.404 143.797 647.802 166.745C639.2 189.693 617.756 209.149 577.237 216.257C536.718 223.366 514.526 222.992 513.404 243.321C512.282 263.649 513.404 298.695 495.451 326.382C492.833 330.996 495.95 334.114 533.227 334.114C570.504 334.114 592.696 331.869 598.93 316.28C605.164 300.69 614.14 266.643 618.628 253.173C623.117 239.704 622.369 231.972 647.179 226.359C671.989 220.747 704.404 214.262 711.385 187.199Z" fill="#8CD9FF"/>
<path d="M625.236 222.867C645.184 214.636 659.272 216.507 680.466 206.405C701.661 196.303 704.404 188.82 707.022 174.976C709.64 161.133 711.51 144.795 698.669 143.673C685.827 142.55 674.233 143.049 668.373 145.045C662.513 147.04 661.017 150.657 654.659 163.752C648.301 176.847 645.184 196.303 616.634 209.024L625.236 222.867Z" fill="black"/>
<path d="M457.176 389.613C457.301 395.973 459.046 405.077 462.537 405.95C466.028 406.823 467.649 399.715 471.264 390.86C467.399 386.869 457.176 382.753 457.176 389.613Z" fill="#A3E1FF"/>
<path d="M616.26 360.678C613.17 360.806 610.148 361.615 607.408 363.048C595.813 368.91 595.938 373.898 596.312 375.644C612.145 366.041 619.127 376.642 623.615 407.696C625.361 419.918 628.478 425.905 637.454 425.905C648.425 425.905 654.908 418.172 654.16 398.218C653.992 394.453 653.576 390.704 652.914 386.993C649.797 370.282 643.314 353.445 627.605 353.445C625.249 353.562 622.965 354.29 620.975 355.559C618.985 356.827 617.361 358.592 616.26 360.678Z" fill="#FF78B9"/>
<path d="M733.328 304.432C726.595 310.418 719.863 310.917 718.367 305.679C716.871 300.441 720.985 291.212 727.718 285.35L739.437 274.999C746.169 269.012 752.902 268.513 754.398 273.751C755.894 278.989 751.655 288.218 745.047 294.08L733.328 304.432Z" fill="#FFA8D2"/>
<path d="M616.26 360.678C626.732 361.801 634.711 366.665 638.077 379.885C640.446 389.238 639.698 400.213 641.319 409.692" stroke="black" stroke-width="2" stroke-linecap="round" stroke-linejoin="round"/>
<path d="M735.572 211.019L732.455 215.26C722.606 228.105 718.991 232.845 729.463 265.894L731.084 264.398C721.235 233.219 724.476 228.854 733.951 216.507L737.193 212.266C744.923 201.79 747.79 191.439 747.541 182.584L745.297 179.092C746.543 188.196 744.05 199.545 735.572 211.019Z" fill="#5865F2"/>
<path d="M593.569 383.626C594.566 378.014 593.32 375.27 590.452 375.644C587.585 376.018 585.091 377.764 582.348 384.125C584.593 408.445 591.076 398.966 593.569 383.626Z" fill="#A3E1FF"/>
<path d="M696.053 147.664L715.627 145.169C718.744 144.795 719.866 137.686 721.237 128.707C722.608 119.727 720.988 103.39 720.988 103.39L700.791 109.501L696.053 147.664Z" fill="#FF78B9"/>
<path d="M750.411 97.528C742.058 88.1743 699.669 55.4987 699.669 55.4987L689.695 69.841C689.695 69.841 703.783 85.4305 713.881 95.9067C693.435 97.528 656.532 102.392 656.532 102.392C630.35 97.1538 619.254 94.6595 619.254 94.6595L646.184 69.0927L636.334 54.3763C636.334 54.3763 610.652 70.0905 596.19 81.4396C581.727 92.7888 579.359 106.757 593.073 117.358C606.787 127.959 611.4 131.201 611.4 131.201L699.793 140.305C725.725 133.072 741.185 125.215 750.535 117.108C759.886 109.002 758.764 106.882 750.411 97.528Z" fill="#FFC619"/>
<path d="M604.044 93.2875C607.161 93.7864 612.646 95.2831 612.646 95.2831" stroke="black" stroke-width="2" stroke-linecap="round" stroke-linejoin="round"/>
<path d="M694.308 51.0089L685.456 65.8501L695.43 76.0769C698.671 72.4602 701.913 66.0995 700.915 56.4964L694.308 51.0089Z" fill="black"/>
<path d="M636.958 115.861C624.989 101.145 620.75 94.7842 618.257 87.426C616.511 82.0632 627.109 85.3058 640.823 89.4214C654.537 93.5371 652.417 97.4032 636.958 115.861Z" fill="#FF78B9"/>
<path d="M619.753 94.2853C607.161 108.378 606.912 125.589 608.283 149.659C608.283 149.659 586.59 171.484 589.707 190.566C592.823 209.647 622.496 217.879 656.282 217.505C683.461 217.255 686.453 210.895 688.947 198.049C690.443 189.693 691.565 180.09 692.313 172.607C693.067 164.741 695.044 157.04 698.173 149.784C714.879 110.997 701.414 97.0291 701.414 97.0291L656.282 100.646L619.753 94.2853Z" fill="#FF78B9"/>
<path d="M629.727 74.0814C619.129 81.9385 621.374 93.9112 636.334 110.374L643.067 117.108L686.578 110C700.541 92.664 697.798 81.0655 692.687 73.8319C699.793 62.1086 700.292 54.0021 700.167 46.7686C700.043 34.5464 688.947 15.3402 661.02 15.5896C645.81 15.7143 632.345 21.7007 627.483 41.0317C625.737 47.7663 625.363 58.7413 629.727 74.0814Z" fill="#FFE75C"/>
<path d="M683.586 31.4285C683.919 31.4267 684.249 31.4953 684.553 31.6296C684.859 31.7639 685.132 31.9612 685.355 32.2083C685.579 32.4554 685.748 32.747 685.851 33.0641C685.954 33.381 685.989 33.7161 685.954 34.0476L684.458 50.8842C684.016 54.6604 682.241 58.1545 679.453 60.738C676.664 63.3215 673.046 64.8247 669.248 64.9771H665.882C661.912 65.0148 658.065 63.605 655.059 61.0113C652.053 58.4176 650.095 54.8175 649.55 50.8842L648.926 45.272C648.835 44.6109 648.506 44.0056 648.001 43.5695C647.496 43.1334 646.851 42.8962 646.184 42.9024C645.497 42.8995 644.835 43.1542 644.327 43.6159C643.82 44.0777 643.503 44.7131 643.441 45.3967L642.693 54.3763C642.416 57.3438 641.055 60.105 638.869 62.1304C636.684 64.1557 633.827 65.3026 630.849 65.3513C629.062 65.4187 627.283 65.0975 625.634 64.4097C623.984 63.7219 622.503 62.6838 621.294 61.3673C620.085 60.051 619.176 58.4875 618.63 56.7853C618.084 55.0829 617.914 53.2823 618.132 51.5078L619.628 34.5464C619.717 33.8732 620.04 33.2531 620.542 32.7963C621.045 32.3396 621.693 32.0759 622.371 32.0521L683.586 31.4285Z" fill="black"/>
<path d="M685.207 32.0521L700.167 46.7686V49.7618L685.331 39.4104L685.207 32.0521Z" fill="black"/>
<path d="M701.414 96.9043C694.396 90.2731 686.133 85.1014 677.103 81.6889C668.999 78.8205 667.129 78.0722 665.259 82.6867C663.389 87.3011 661.394 92.5392 660.646 94.2852C659.898 96.0313 651.046 102.018 645.685 106.507C640.324 110.997 634.714 120.6 634.714 120.6L691.565 124.965L701.414 96.9043Z" fill="#FF78B9"/>
<path d="M713.632 95.6572L720.988 103.39C717.622 113.866 715.502 126.961 714.255 141.553L685.207 143.673L701.414 97.0291L713.632 95.6572Z" fill="#FF78B9"/>
<path d="M619.753 94.2852L614.392 93.2875C613.569 93.1683 612.731 93.2291 611.935 93.4661C611.138 93.7029 610.402 94.1101 609.779 94.6595C603.676 100.216 599.56 107.619 598.06 115.736C596.439 125.215 596.938 126.212 607.909 132.074C615.265 136.065 622.87 118.605 626.984 106.757C627.461 105.465 627.648 104.084 627.53 102.712C627.413 101.339 626.994 100.01 626.303 98.8185C625.611 97.6271 624.666 96.6031 623.534 95.8194C622.402 95.0358 621.111 94.512 619.753 94.2852Z" fill="#FF78B9"/>
<path d="M624.989 191.314C615.444 180.186 604.699 170.147 592.948 161.382L565.021 175.974L574.122 203.162C574.122 203.162 581.603 212.641 588.585 220.124C595.566 227.607 608.158 227.856 631.348 229.851C640.075 214.262 636.085 204.409 624.989 191.314Z" fill="#2835BD"/>
<path d="M579.483 202.663L581.977 190.566" stroke="black" stroke-width="2" stroke-linecap="round" stroke-linejoin="round"/>
<path d="M677.477 186.201C675.233 180.09 668.376 175.226 637.706 173.729L626.361 162.255L594.818 186.326C606.039 205.282 618.756 228.105 631.348 229.851C643.94 231.597 655.285 230.724 670.246 221.62C679.721 215.759 680.968 213.015 681.217 208.026C681.026 200.609 679.767 193.259 677.477 186.201Z" fill="#3442D9"/>
<path d="M711.388 187.199C704.406 214.262 671.991 220.622 647.181 226.359C624.74 231.473 623.244 238.207 619.878 249.432L602.922 244.942V227.482L625.239 222.867C645.186 214.636 659.274 216.507 680.469 206.405C701.663 196.303 704.406 188.82 707.024 174.976C708.645 166.87 709.892 157.641 707.897 151.28L715.003 152.278C716.874 160.759 715.253 172.732 711.388 187.199Z" fill="#8CD9FF"/>
<path d="M521.635 214.013C519.982 215.014 518.714 216.543 518.036 218.353C517.356 220.162 517.308 222.148 517.895 223.99C521.51 235.464 523.131 244.318 519.765 272.255C516.399 300.191 510.788 315.656 508.17 321.393C508.009 321.733 507.932 322.108 507.943 322.484C507.956 322.86 508.058 323.227 508.24 323.557C508.423 323.886 508.681 324.167 508.994 324.376C509.307 324.586 509.666 324.718 510.04 324.76C524.004 326.88 544.949 326.631 567.889 323.638C571.759 323.13 575.425 321.604 578.514 319.215C581.602 316.827 584.002 313.663 585.468 310.044C591.365 295.405 596.198 280.358 599.93 265.021C608.283 230.6 607.286 231.223 625.239 222.867C623.867 210.52 623.992 198.672 610.527 196.926C594.818 194.931 577.613 202.663 552.928 209.398C547.318 204.409 542.206 201.915 521.635 214.013Z" fill="#45AAF7"/>
<path d="M589.208 198.797C578.86 201.291 567.141 205.532 552.928 209.398C548.814 205.781 544.949 203.412 535.1 207.278C534.734 208.211 534.443 209.17 534.227 210.146C529.739 232.47 521.261 269.012 546.694 267.017C572.128 265.021 574.995 249.931 574.247 236.212C573.499 222.493 571.878 214.886 574.247 210.895C576.616 206.904 584.969 199.92 589.208 198.797Z" fill="#287CEB"/>
<path d="M612.023 230.35C610.278 215.759 609.156 208.774 605.166 206.031C601.177 203.287 599.805 204.16 594.569 205.282C589.333 206.405 582.725 208.4 574.247 210.895C558.414 215.509 538.715 221.371 531.235 220.872L528.741 220.498C530.487 218.627 541.209 214.761 548.315 212.142L553.302 210.271C553.419 210.242 553.529 210.19 553.625 210.118C553.721 210.044 553.801 209.952 553.859 209.847C553.918 209.741 553.954 209.625 553.965 209.504C553.976 209.384 553.963 209.263 553.925 209.149L552.928 209.398L552.055 208.65L547.567 210.271C530.985 216.382 526.248 218.502 526.622 220.872C526.996 223.241 528.866 222.743 531.11 222.867C538.84 223.366 557.915 217.754 574.87 212.765C583.224 210.271 590.455 208.151 594.943 207.278C599.431 206.405 602.299 206.405 604.044 207.652C605.789 208.899 608.532 217.629 610.153 232.346L612.023 230.35Z" fill="black"/>
<path d="M618.381 49.0135L642.069 31.8027L633.218 31.9274L619.005 42.2788L618.381 49.0135Z" fill="#5865F2"/>
<path d="M624.116 63.6052C626.157 64.7956 628.486 65.3999 630.849 65.3513C633.827 65.3026 636.684 64.1557 638.869 62.1303C641.055 60.105 642.416 57.3437 642.693 54.3763L643.067 49.8865L624.116 63.6052Z" fill="#5865F2"/>
<path d="M683.586 31.4285H673.736L649.425 49.0135V50.8842C649.706 52.8128 650.339 54.6732 651.295 56.3717L685.082 32.0521C684.662 31.6912 684.138 31.4728 683.586 31.4285Z" fill="#5865F2"/>
<path d="M684.458 50.8841L685.207 42.7776L657.529 62.8569C660.085 64.2715 662.961 65.0018 665.882 64.977H669.248C673.046 64.8247 676.664 63.3215 679.453 60.7379C682.241 58.1544 684.016 54.6602 684.458 50.8841Z" fill="#5865F2"/>
<path d="M641.446 66.8479C644.772 66.1218 648.217 66.1218 651.545 66.8479" stroke="black" stroke-width="2" stroke-linecap="round" stroke-linejoin="round"/>
<path d="M536.97 165.872C537.094 166.246 537.219 166.496 537.344 166.496C537.468 166.496 537.593 166.371 537.718 165.997" fill="black"/>
<path d="M558.164 160.135C544.699 165.373 525.874 176.348 509.666 185.453C500.69 190.441 497.947 193.434 502.685 202.539C507.422 211.643 516.399 220.373 523.131 226.359C529.863 232.346 533.604 229.851 538.59 226.609L574.122 203.162L592.948 161.382C585.094 155.895 571.754 154.772 558.164 160.135Z" fill="#2835BD"/>
<path d="M520.139 209.647C525.874 210.77 525.874 211.393 532.98 206.779C540.087 202.164 575.868 180.589 579.483 178.219" stroke="#4150F2" stroke-width="2" stroke-miterlimit="10" stroke-linecap="round"/>
<path d="M610.153 146.915C604.543 142.8 600.678 142.55 570.507 140.056C540.336 137.562 526.248 134.444 522.757 139.931C519.266 145.419 522.383 159.137 525.874 169.489C529.365 179.84 531.359 183.208 536.222 183.582C541.084 183.956 586.465 185.453 594.818 186.326L598.932 193.31L637.706 173.729C637.706 173.729 615.639 151.031 610.153 146.915Z" fill="#3442D9"/>
<path d="M514.404 201.291C506.923 195.18 503.931 194.058 504.804 198.174C505.677 202.289 510.414 208.4 515.526 213.888C520.638 219.375 526.497 224.988 528.492 224.613C530.487 224.239 528.118 220.498 525.001 214.511C522.339 209.472 518.743 204.986 514.404 201.291Z" fill="black"/>
<path d="M522.632 210.396L516.399 214.761L511.287 218.378C505.178 222.867 507.672 226.484 508.17 230.724C508.669 234.965 507.298 238.083 504.43 238.083C501.563 238.083 497.324 226.11 494.331 220.373C491.339 214.636 481.49 210.022 476.378 205.657C474.259 203.786 473.76 200.668 476.378 199.67C475.256 198.049 473.76 193.933 477.501 192.686C481.241 191.439 486.851 198.298 489.968 200.418C493.085 202.539 496.95 204.534 499.817 203.287C501.788 202.409 503.703 201.409 505.552 200.294L509.791 197.675L514.404 201.291C517.534 203.952 520.301 207.012 522.632 210.396Z" fill="#FF78B9"/>
<path d="M711.388 187.199C704.406 214.262 671.991 220.622 647.181 226.359C622.371 232.096 623.119 239.579 618.631 253.173C614.143 266.767 605.166 300.815 598.932 316.28L681.84 267.516L715.752 203.162L711.388 187.199Z" fill="#66BCFF"/>
<path d="M615.265 296.699C612.522 306.302 610.278 313.536 609.031 318.774C607.784 324.012 613.519 323.513 619.628 321.767C625.737 320.021 628.355 317.402 627.358 312.039C626.361 306.676 618.257 285.849 615.265 296.699Z" fill="white"/>
<path d="M514.404 201.291L509.791 197.675C508.669 197.55 508.045 197.55 507.547 197.924C507.048 198.298 507.173 198.548 507.297 199.171C510.165 198.672 517.271 203.786 517.521 213.888C519.141 214.636 520.014 215.135 520.637 214.761C521.261 214.387 522.134 212.641 522.632 210.396C520.301 207.012 517.534 203.952 514.404 201.291Z" fill="black"/>
<path d="M503.433 232.595C502.186 227.856 497.947 218.128 494.331 214.262C490.716 210.396 484.981 201.291 483.111 198.298C481.241 195.305 476.378 191.564 475.256 194.931C475.013 196.596 475.415 198.291 476.378 199.67C473.76 200.668 474.259 203.786 476.378 205.657C481.49 210.022 491.09 214.013 494.331 220.373C497.573 226.734 499.817 235.963 503.308 237.833L504.305 238.083C504.929 237.958 504.555 236.212 503.433 232.595Z" fill="#DE3A93"/>
<path d="M646.059 8.10667C644.479 12.5611 644.305 17.3935 645.56 21.9501C645.759 22.7517 646.226 23.4609 646.884 23.9602C647.541 24.4593 648.351 24.7182 649.176 24.6939H656.781C657.627 24.6977 658.465 24.522 659.24 24.1781C660.012 23.834 660.704 23.3297 661.269 22.6984C665.882 17.8345 674.235 16.5873 680.718 19.3311L684.583 13.7189C684.997 13.1691 685.2 12.4887 685.154 11.8017C685.108 11.1149 684.817 10.4673 684.334 9.9774C680.554 6.40387 676.043 3.69434 671.113 2.03626C666.184 0.378172 660.954 -0.18889 655.784 0.37428C653.605 0.636016 651.543 1.49752 649.827 2.8628C648.11 4.22806 646.805 6.04345 646.059 8.10667Z" fill="#FF8C19"/>
<path d="M714.754 135.691C714.256 141.553 715.253 143.548 716.624 141.178C717.588 139.051 718.179 136.772 718.37 134.444L714.754 135.691Z" fill="black"/>
<path d="M699.793 97.4033C689.071 98.7751 683.087 100.646 677.726 103.14" stroke="black" stroke-width="2" stroke-linecap="round" stroke-linejoin="round"/>
<path d="M721.736 104.886L726.349 109.501" stroke="black" stroke-width="2" stroke-linecap="round" stroke-linejoin="round"/>
<path d="M694.432 149.16C694.432 149.16 688.822 153.276 685.207 156.269" stroke="black" stroke-width="2" stroke-linecap="round" stroke-linejoin="round"/>
<path d="M645.186 116.984L644.189 131.7H637.581C637.968 126.87 638.718 122.075 639.825 117.358C640.072 116.552 640.451 115.794 640.947 115.113C642.606 113.036 644.534 111.191 646.682 109.625L658.152 101.02C661.399 98.6257 663.87 95.3296 665.259 91.5416C666.879 87.3013 668.874 81.9383 669.747 80.8159" stroke="#F551A0" stroke-width="2" stroke-linecap="round" stroke-linejoin="round"/>
<path d="M714.629 96.655C709.393 109.875 703.658 132.324 708.022 143.049C708.459 144.059 709.003 145.021 709.642 145.918L712.136 145.668C711.192 144.689 710.432 143.549 709.892 142.301C705.902 132.698 710.889 111.995 716.125 98.2763L714.629 96.655Z" fill="#F551A0"/>
<path d="M599.182 126.462C599.681 127.051 600.269 127.556 600.927 127.959C602.174 113.367 608.158 101.02 617.384 93.7865L614.891 93.4123C606.288 100.771 600.553 112.619 599.182 126.462Z" fill="#F551A0"/>
<path d="M699.294 148.287L685.456 149.909" stroke="black" stroke-width="2" stroke-linecap="round" stroke-linejoin="round"/>
<path d="M680.718 201.167C675.731 204.534 665.134 209.647 658.402 211.144C656.72 211.489 655.007 211.657 653.29 211.643C650.59 211.744 647.907 211.183 645.473 210.009C643.039 208.834 640.93 207.085 639.327 204.908L632.844 195.804C627.233 187.822 620.127 177.97 615.015 170.861C614.891 170.611 614.891 170.487 614.766 170.362C607.036 159.512 602.922 154.772 597.187 153.899C591.452 153.026 574.87 151.53 545.822 149.285C538.591 148.786 537.468 148.911 536.097 152.153C536.057 152.276 535.991 152.388 535.904 152.481C535.817 152.575 535.709 152.649 535.591 152.696C535.471 152.743 535.344 152.765 535.216 152.757C535.087 152.75 534.963 152.713 534.85 152.652C534.621 152.545 534.435 152.364 534.322 152.137C534.208 151.911 534.175 151.653 534.227 151.405C536.222 146.541 539.214 146.791 545.946 147.289C562.902 148.661 591.951 150.906 597.561 151.904C603.171 152.902 609.28 159.262 616.387 169.239C616.387 169.364 616.511 169.489 616.636 169.614C621.748 176.722 628.729 186.7 634.464 194.557L640.947 203.786C644.438 208.65 650.797 210.645 657.903 209.149C665.009 207.652 676.604 201.666 680.469 198.922C680.614 199.663 680.697 200.413 680.718 201.167Z" fill="#5865F2"/>
<path d="M526.622 142.051C523.006 145.419 524.876 152.029 527.37 161.133C529.863 170.237 532.98 178.468 534.601 178.219C536.222 177.97 537.094 174.727 537.468 169.988C537.843 165.249 537.718 156.768 535.848 150.407C533.978 144.047 529.365 139.432 526.622 142.051Z" fill="black"/>
<path d="M537.718 165.997L528.492 164.874C524.004 164.251 519.516 163.877 515.027 163.627C514.155 168.99 512.284 175.849 509.666 178.593C507.048 181.337 502.435 181.212 501.937 174.976C501.438 168.741 501.812 159.886 497.698 141.428C496.202 134.568 493.459 130.453 492.461 125.215C491.464 119.977 494.456 119.104 497.199 119.603C496.576 116.111 496.825 111.621 501.189 110.997C505.552 110.374 507.298 114.115 507.298 118.979C507.945 118.083 508.877 117.434 509.943 117.139C511.008 116.845 512.141 116.922 513.157 117.358C516.149 118.48 516.773 122.222 516.399 128.208C516.025 134.194 515.9 140.555 518.393 142.675C520.887 144.795 521.51 144.047 525.001 144.546L533.479 145.294C534.49 146.887 535.287 148.606 535.848 150.407C537.137 155.502 537.765 160.741 537.718 165.997Z" fill="#FF78B9"/>
<path d="M537.718 165.997C537.765 160.741 537.137 155.502 535.848 150.407C535.287 148.606 534.49 146.887 533.479 145.294H532.357C535.474 149.285 537.344 159.761 532.357 165.373C533.059 165.968 533.86 166.432 534.726 166.745C535.779 166.846 536.835 166.583 537.718 165.997Z" fill="black"/>
<path d="M513.282 124.716C513.78 118.854 509.666 116.36 507.297 118.979C507.297 114.115 505.677 110.374 501.189 110.997C496.7 111.621 496.576 116.111 497.199 119.603C494.456 119.104 491.464 120.102 492.461 125.215C493.459 130.328 496.202 134.568 497.698 141.428C501.812 159.886 501.313 167.618 501.937 174.976C501.945 176.459 502.425 177.901 503.308 179.092C506.175 182.085 507.422 178.468 507.297 172.981C507.229 164.393 507.729 155.811 508.794 147.289C510.04 137.312 512.908 130.578 513.282 124.716Z" fill="#DE3A93"/>
<path d="M501.687 110.997C505.552 110.873 505.677 115.736 505.552 121.099L507.297 118.979C507.297 114.365 505.801 110.623 501.687 110.997Z" fill="#FF78B9"/>
<path d="M601.8 172.357C599.84 177.189 597.506 181.859 594.818 186.326C600.553 183.831 602.922 182.584 602.922 182.584" stroke="black" stroke-width="2" stroke-linecap="round" stroke-linejoin="round"/>
<path d="M638.828 174.852L652.043 188.321C662.765 189.693 665.259 191.938 668.126 195.555" stroke="black" stroke-width="2" stroke-linecap="round" stroke-linejoin="round"/>
<path d="M652.043 188.321L664.137 188.695" stroke="black" stroke-width="2" stroke-linecap="round" stroke-linejoin="round"/>
<path d="M619.13 314.409C617.509 318.524 614.766 321.268 613.02 320.645C611.275 320.021 611.275 318.026 613.02 314.159C613.772 312.59 614.398 310.964 614.891 309.295C615.888 305.679 617.758 305.055 619.13 305.679C620.501 306.302 620.875 310.168 619.13 314.409Z" fill="black"/>
<path d="M521.136 258.91C521.012 261.03 520.762 263.4 520.513 265.894L548.44 269.012L519.017 278.241C518.393 282.482 517.77 286.348 517.147 289.964L536.596 291.96C529.988 294.33 522.757 296.824 515.027 299.817C514.03 304.223 513.032 307.965 512.035 311.041L521.136 311.291L510.913 314.159C510.164 316.63 509.247 319.047 508.17 321.393C508.043 321.713 507.959 322.049 507.921 322.391C519.017 318.899 530.237 316.03 541.084 313.661C552.157 315.66 563.074 318.452 573.748 322.016C576.446 320.882 578.87 319.18 580.855 317.028C576.616 315.531 570.382 313.536 562.777 311.416L558.414 310.293C568.761 308.547 578.361 307.051 587.088 305.928C588.46 302.436 589.956 298.32 591.452 293.831C583.348 291.96 574.995 290.463 566.891 289.091C578.611 285.475 587.836 282.856 595.566 280.985C596.813 276.745 598.06 272.255 599.306 267.516L582.476 265.77L601.052 260.033L603.047 252.176L565.021 263.774L521.136 258.91ZM583.847 299.318C571.13 301.064 556.294 303.309 540.835 306.676C535.016 305.679 528.907 304.93 522.508 304.432C533.604 300.316 543.328 296.824 552.055 293.955C562.154 295.327 573.125 297.073 583.847 299.318ZM594.569 274.001C583.972 276.62 570.258 280.486 551.432 286.847C541.333 285.475 532.232 284.477 524.876 283.729L565.769 270.883L594.569 274.001Z" fill="#3F4EEB"/>
<path d="M521.635 249.058C521.51 251.427 521.51 254.046 521.261 257.039C553.177 256.042 589.707 252.176 603.421 250.554C604.169 247.312 604.917 244.568 605.665 242.198C595.816 243.445 556.045 248.06 521.635 249.058Z" fill="#3F4EEB"/>
<path d="M575.619 315.282L580.855 317.028C578.87 319.18 576.446 320.882 573.748 322.017L568.761 320.395C571.38 319.19 573.716 317.448 575.619 315.282Z" fill="black"/>
<path d="M587.338 292.958L591.452 293.831C589.956 298.32 588.46 302.436 587.088 305.928L581.603 306.676C583.93 302.289 585.85 297.697 587.338 292.958Z" fill="black"/>
<path d="M594.444 267.017L599.307 267.516C598.06 272.255 596.813 276.745 595.566 280.985L590.579 282.232C591.327 279.738 591.951 277.119 592.574 274.5C592.699 274.25 592.699 274.001 592.823 273.751C593.322 271.507 593.946 269.262 594.444 267.017Z" fill="black"/>
<path d="M597.686 253.797L603.047 252.176L601.052 260.033L595.691 261.654C596.314 259.035 597.062 256.416 597.686 253.797Z" fill="black"/>
<path d="M605.665 242.198C604.917 244.568 604.169 247.312 603.421 250.554L598.309 251.053L600.553 242.822L605.665 242.198Z" fill="black"/>
<path d="M510.913 314.159L517.147 312.413C516.274 315.157 515.401 317.776 514.404 320.395L507.921 322.391C507.959 322.049 508.043 321.713 508.17 321.393C509.247 319.047 510.164 316.63 510.913 314.159Z" fill="black"/>
<path d="M515.027 299.817L520.638 297.697C519.765 302.436 518.767 306.801 517.521 311.166H512.035C513.032 308.007 514.03 304.223 515.027 299.817Z" fill="black"/>
<path d="M519.017 278.241L523.63 276.745C523.131 281.608 522.508 286.098 521.884 290.463L517.147 289.964C517.77 286.348 518.393 282.482 519.017 278.241Z" fill="black"/>
<path d="M521.136 258.91L525.375 259.409L524.627 266.268L520.513 265.894C520.762 263.4 521.012 261.03 521.136 258.91Z" fill="black"/>
<path d="M526.373 248.933L525.625 256.915H521.261C521.51 253.922 521.51 251.303 521.635 248.933H526.373Z" fill="black"/>
<path d="M647.804 280.611L648.054 291.212C648.061 291.762 648.215 292.299 648.496 292.771C648.779 293.242 649.182 293.631 649.662 293.897C650.143 294.162 650.687 294.297 651.235 294.285C651.785 294.273 652.321 294.116 652.791 293.831C653.354 293.463 653.787 292.929 654.033 292.303C654.279 291.678 654.323 290.991 654.163 290.339L650.547 277.867L647.804 280.611Z" fill="white"/>
<path d="M629.602 248.684C639.576 251.801 641.571 262.402 643.69 280.361C643.733 280.803 643.893 281.226 644.154 281.585C644.415 281.945 644.766 282.228 645.173 282.405C645.579 282.584 646.025 282.65 646.467 282.598C646.907 282.545 647.326 282.376 647.68 282.107L651.171 279.488C652.085 278.835 652.801 277.942 653.241 276.908C653.682 275.874 653.827 274.739 653.664 273.627C653.29 271.382 652.667 267.89 652.043 263.151C650.547 253.922 644.438 242.697 632.719 241.325C632.083 241.262 631.444 241.395 630.885 241.707C630.328 242.02 629.88 242.496 629.602 243.071C629.006 244.492 628.71 246.021 628.729 247.561C628.743 247.816 628.834 248.059 628.99 248.259C629.146 248.459 629.359 248.607 629.602 248.684Z" fill="#3F4EEB"/>
</svg>
