<svg width="239" height="65" viewBox="0 0 239 65" fill="none" xmlns="http://www.w3.org/2000/svg">
<g clip-path="url(#clip0_2_10)">
<path d="M50.5794 13.4014C46.7143 11.6062 42.5816 10.3016 38.261 9.55875C37.7303 10.5111 37.1104 11.792 36.683 12.8109C32.09 12.1253 27.5393 12.1253 23.0308 12.8109C22.6034 11.792 21.9694 10.5111 21.434 9.55875C17.1087 10.3016 12.9712 11.611 9.10614 13.4109C1.31023 25.1053 -0.803118 36.5092 0.253557 47.7512C5.42422 51.5843 10.4352 53.9127 15.3616 55.4364C16.578 53.7746 17.6628 52.0081 18.5974 50.1463C16.8175 49.4749 15.1127 48.6464 13.5019 47.6846C13.9293 47.3703 14.3473 47.0417 14.7511 46.7037C24.5758 51.2653 35.2506 51.2653 44.9579 46.7037C45.3665 47.0417 45.7845 47.3703 46.2071 47.6846C44.5916 48.6511 42.8822 49.4796 41.1023 50.1511C42.0368 52.0081 43.117 53.7794 44.338 55.4411C49.2692 53.9174 54.2848 51.5891 59.4555 47.7512C60.6954 34.7189 57.3375 23.4197 50.5794 13.4014ZM19.9359 40.8375C16.9866 40.8375 14.568 38.1043 14.568 34.776C14.568 31.4477 16.9349 28.7098 19.9359 28.7098C22.9369 28.7098 25.3554 31.4429 25.3038 34.776C25.3085 38.1043 22.9369 40.8375 19.9359 40.8375ZM39.7732 40.8375C36.8239 40.8375 34.4053 38.1043 34.4053 34.776C34.4053 31.4477 36.7722 28.7098 39.7732 28.7098C42.7741 28.7098 45.1928 31.4429 45.1411 34.776C45.1411 38.1043 42.7741 40.8375 39.7732 40.8375Z" fill="white"/>
<path d="M80.2363 21.2637H93.0569C96.1476 21.2637 98.7586 21.7541 100.901 22.7303C103.037 23.7063 104.639 25.0682 105.7 26.8109C106.761 28.5536 107.296 30.5487 107.296 32.7962C107.296 34.996 106.742 36.9911 105.634 38.7767C104.526 40.567 102.84 41.9812 100.572 43.024C98.3035 44.0668 95.4944 44.5905 92.137 44.5905H80.2363V21.2637ZM92.0052 38.6624C94.0858 38.6624 95.6876 38.1339 96.8048 37.0815C97.9229 36.0245 98.4819 34.5865 98.4819 32.7629C98.4819 31.0724 97.9835 29.7249 96.9882 28.7155C95.9929 27.706 94.4852 27.1966 92.4701 27.1966H88.4595V38.6624H92.0052Z" fill="white"/>
<path d="M126.491 44.5621C124.715 44.0954 123.114 43.4193 121.691 42.5289V36.996C122.767 37.8387 124.208 38.534 126.016 39.0815C127.824 39.6243 129.572 39.8957 131.262 39.8957C132.051 39.8957 132.647 39.791 133.051 39.5814C133.455 39.372 133.657 39.1196 133.657 38.8291C133.657 38.4959 133.549 38.2197 133.328 37.9958C133.107 37.7721 132.68 37.5863 132.047 37.4292L128.102 36.5293C125.843 35.996 124.241 35.258 123.288 34.3104C122.334 33.3676 121.86 32.1296 121.86 30.5964C121.86 29.306 122.273 28.1871 123.11 27.23C123.94 26.2729 125.124 25.5349 126.659 25.0158C128.196 24.4921 129.989 24.2302 132.051 24.2302C133.892 24.2302 135.578 24.4302 137.114 24.8302C138.649 25.2302 139.917 25.7396 140.927 26.3634V31.5963C139.894 30.9726 138.71 30.4822 137.358 30.1107C136.01 29.7441 134.625 29.5631 133.197 29.5631C131.135 29.5631 130.107 29.9202 130.107 30.6297C130.107 30.9631 130.266 31.2107 130.586 31.3773C130.905 31.5439 131.492 31.7154 132.342 31.8963L135.629 32.4963C137.776 32.8725 139.377 33.5343 140.429 34.4771C141.481 35.4199 142.007 36.815 142.007 38.6625C142.007 40.6861 141.139 42.2908 139.396 43.4812C137.653 44.6716 135.183 45.2667 131.98 45.2667C130.097 45.262 128.266 45.0287 126.491 44.5621Z" fill="white"/>
<path d="M149.766 43.8619C147.884 42.9286 146.46 41.6621 145.512 40.0622C144.563 38.4623 144.084 36.6624 144.084 34.6626C144.084 32.6628 144.577 30.8724 145.563 29.2963C146.55 27.7202 147.996 26.4822 149.903 25.5823C151.809 24.6824 154.087 24.2348 156.741 24.2348C160.028 24.2348 162.757 24.9347 164.926 26.3346V32.4342C164.161 31.9009 163.268 31.4676 162.249 31.1343C161.23 30.801 160.141 30.6343 158.976 30.6343C156.938 30.6343 155.346 31.0105 154.195 31.7675C153.044 32.5246 152.467 33.5103 152.467 34.734C152.467 35.9339 153.025 36.9148 154.144 37.6862C155.262 38.4528 156.881 38.8385 159.009 38.8385C160.103 38.8385 161.183 38.6766 162.249 38.3576C163.311 38.0338 164.227 37.6386 164.992 37.1719V43.0714C162.583 44.538 159.789 45.2713 156.609 45.2713C153.932 45.2618 151.65 44.7952 149.766 43.8619Z" fill="white"/>
<path d="M173.126 43.8621C171.229 42.9289 169.782 41.6527 168.786 40.029C167.791 38.4053 167.289 36.596 167.289 34.5961C167.289 32.5963 167.786 30.8107 168.786 29.2442C169.787 27.6776 171.224 26.4491 173.112 25.5587C174.995 24.6682 177.245 24.2254 179.851 24.2254C182.458 24.2254 184.707 24.6682 186.59 25.5587C188.474 26.4491 189.911 27.6681 190.897 29.2251C191.883 30.7821 192.376 32.5677 192.376 34.5914C192.376 36.5912 191.883 38.4006 190.897 40.0243C189.911 41.648 188.469 42.9241 186.571 43.8573C184.674 44.7906 182.434 45.2572 179.847 45.2572C177.259 45.2572 175.018 44.7953 173.126 43.8621ZM183.115 37.9482C183.914 37.1388 184.317 36.0675 184.317 34.7342C184.317 33.401 183.918 32.3391 183.115 31.5535C182.317 30.7631 181.227 30.3679 179.847 30.3679C178.442 30.3679 177.343 30.7631 176.54 31.5535C175.742 32.3439 175.343 33.401 175.343 34.7342C175.343 36.0675 175.742 37.1388 176.54 37.9482C177.339 38.7577 178.442 39.1672 179.847 39.1672C181.227 39.1624 182.317 38.7577 183.115 37.9482Z" fill="white"/>
<path d="M212.129 25.4634V32.6628C211.293 32.1057 210.213 31.8295 208.875 31.8295C207.122 31.8295 205.77 32.3677 204.83 33.4437C203.887 34.5199 203.417 36.1959 203.417 38.4624V44.5953H195.363V25.0968H203.253V31.2963C203.689 29.0297 204.399 27.3585 205.375 26.2776C206.348 25.2015 207.606 24.6635 209.137 24.6635C210.297 24.6635 211.293 24.9301 212.129 25.4634Z" fill="white"/>
<path d="M238.889 20.5971V44.5954H230.834V40.2291C230.153 41.8718 229.12 43.1241 227.73 43.9811C226.34 44.8335 224.621 45.262 222.583 45.262C220.761 45.262 219.174 44.8144 217.816 43.9145C216.459 43.0146 215.412 41.7814 214.674 40.2148C213.942 38.6482 213.57 36.877 213.57 34.8962C213.547 32.8535 213.937 31.0202 214.74 29.3965C215.539 27.7728 216.67 26.5063 218.126 25.5968C219.582 24.6873 221.244 24.2302 223.109 24.2302C226.946 24.2302 229.519 25.9206 230.834 29.2965V20.5971H238.889ZM229.632 37.815C230.454 37.0055 230.863 35.9532 230.863 34.6676C230.863 33.4248 230.463 32.4106 229.665 31.6345C228.866 30.8584 227.772 30.4679 226.396 30.4679C225.039 30.4679 223.954 30.8631 223.142 31.6535C222.329 32.444 221.925 33.4676 221.925 34.7342C221.925 36.0008 222.329 37.0341 223.142 37.834C223.954 38.6339 225.025 39.0339 226.363 39.0339C227.72 39.0292 228.81 38.6244 229.632 37.815Z" fill="white"/>
<path d="M114.083 27.1726C116.301 27.1726 118.099 25.5353 118.099 23.5157C118.099 21.4961 116.301 19.8589 114.083 19.8589C111.865 19.8589 110.068 21.4961 110.068 23.5157C110.068 25.5353 111.865 27.1726 114.083 27.1726Z" fill="white"/>
<path d="M110.064 29.6916C112.525 30.7677 115.578 30.8153 118.095 29.6916V44.7H110.064V29.6916Z" fill="white"/>
</g>
<defs>
<clipPath id="clip0_2_10">
<rect width="239" height="65" fill="white"/>
</clipPath>
</defs>
</svg>
